<svg xmlns="http://www.w3.org/2000/svg" xmlns:xlink="http://www.w3.org/1999/xlink" width="5472" zoomAndPan="magnify" viewBox="0 0 4104 2444.249893" height="3259" preserveAspectRatio="xMidYMid meet" version="1.2"><defs><clipPath id="9bb1597cbd"><path d="M 1052.117188 333.675781 L 2917.589844 333.675781 L 2917.589844 2199.148438 L 1052.117188 2199.148438 Z M 1052.117188 333.675781 "/></clipPath><clipPath id="1018cf27ce"><path d="M 1984.855469 2199.148438 L 1052.117188 1266.410156 L 1518.484375 1266.410156 L 1518.484375 333.675781 L 2451.222656 333.675781 L 2451.222656 1266.410156 L 2917.589844 1266.410156 Z M 1984.855469 2199.148438 "/></clipPath></defs><g id="c5840c0930"><g style="fill:#ffffff;fill-opacity:1;"><g transform="translate(1976.668471, 1602.333912)"><path style="stroke:none" d="M 8.140625 0.296875 C 6.992188 0.296875 6.085938 -0.0234375 5.421875 -0.671875 C 4.753906 -1.316406 4.421875 -2.171875 4.421875 -3.234375 C 4.421875 -4.285156 4.753906 -5.148438 5.421875 -5.828125 C 6.085938 -6.503906 6.992188 -6.84375 8.140625 -6.84375 C 9.304688 -6.84375 10.222656 -6.519531 10.890625 -5.875 C 11.554688 -5.226562 11.890625 -4.367188 11.890625 -3.296875 C 11.890625 -2.222656 11.550781 -1.351562 10.875 -0.6875 C 10.195312 -0.03125 9.285156 0.296875 8.140625 0.296875 Z M 8.140625 0.296875 "/></g></g><g clip-rule="nonzero" clip-path="url(#9bb1597cbd)"><g clip-rule="nonzero" clip-path="url(#1018cf27ce)"><path style=" stroke:none;fill-rule:nonzero;fill:#005a66;fill-opacity:1;" d="M 1052.117188 333.675781 L 2917.589844 333.675781 L 2917.589844 2199.148438 L 1052.117188 2199.148438 Z M 1052.117188 333.675781 "/></g></g></g></svg>