<svg xmlns="http://www.w3.org/2000/svg" xmlns:xlink="http://www.w3.org/1999/xlink" width="250" zoomAndPan="magnify" viewBox="0 0 187.5 74.999997" height="100" preserveAspectRatio="xMidYMid meet" version="1.2"><defs><clipPath id="967812a25d"><path d="M 53.363281 42.703125 L 78.328125 42.703125 L 78.328125 50.875 L 53.363281 50.875 Z M 53.363281 42.703125 "/></clipPath><clipPath id="ba03704d22"><path d="M 63 15.71875 L 73 15.71875 L 73 31 L 63 31 Z M 63 15.71875 "/></clipPath><clipPath id="e1207452a3"><path d="M 69.527344 27.945312 L 84.832031 27.945312 L 84.832031 36.507812 L 69.527344 36.507812 Z M 69.527344 27.945312 "/></clipPath><clipPath id="b13427f509"><path d="M 48.183594 27 L 64 27 L 64 37 L 48.183594 37 Z M 48.183594 27 "/></clipPath></defs><g id="409666fbb0"><g clip-rule="nonzero" clip-path="url(#967812a25d)"><path style=" stroke:none;fill-rule:nonzero;fill:#643622;fill-opacity:1;" d="M 53.398438 49.566406 C 53.398438 49.566406 55.734375 48.625 56.355469 48.054688 C 56.355469 48.054688 56.9375 46.804688 57.484375 46.765625 C 57.484375 46.765625 58.214844 46.300781 58.105469 46.074219 C 57.992188 45.847656 58.542969 45.171875 59.527344 45.171875 C 60.476562 45.171875 60.613281 44 61.789062 44.054688 C 61.839844 44.054688 61.886719 44.058594 61.933594 44.0625 C 61.933594 44.0625 62.921875 44.144531 63.246094 43.613281 C 63.246094 43.613281 65.253906 41.792969 68.683594 43.429688 C 68.683594 43.429688 69.632812 44.144531 70.394531 44.269531 C 70.394531 44.269531 72.949219 44.472656 72.949219 45.066406 C 72.949219 45.066406 74.261719 45.265625 73.53125 45.96875 C 73.53125 45.96875 73.789062 46.835938 74.664062 47.074219 C 74.664062 47.074219 75.0625 47.210938 75.210938 47.824219 C 75.210938 47.824219 75.46875 48.109375 75.90625 48.085938 C 75.90625 48.085938 76.085938 48.25 76.238281 48.699219 C 76.238281 48.699219 77.84375 49.992188 78.28125 49.976562 C 78.28125 49.976562 70.40625 51.457031 67.125 50.617188 C 67.0625 50.601562 66.996094 50.585938 66.933594 50.5625 C 63.757812 49.585938 63.304688 50.601562 59.878906 50.808594 C 59.875 50.8125 54.53125 50.371094 53.398438 49.566406 "/></g><path style=" stroke:none;fill-rule:nonzero;fill:#40752e;fill-opacity:1;" d="M 65.167969 30.109375 C 65.167969 30.109375 66.851562 45.46875 62.074219 47.457031 C 62.074219 47.457031 66.085938 46.035156 68.261719 48.097656 C 68.261719 48.097656 64.96875 32.984375 67.007812 30.664062 C 67.007812 30.664062 68.011719 24.335938 65.167969 30.109375 "/><path style=" stroke:none;fill-rule:nonzero;fill:#643622;fill-opacity:1;" d="M 71.015625 48.007812 C 71.082031 47.730469 70.738281 46.914062 70.117188 46.914062 C 69.519531 46.914062 69.433594 45.492188 68.699219 45.554688 C 68.667969 45.554688 68.640625 45.5625 68.609375 45.570312 C 68.609375 45.570312 67.988281 45.667969 67.78125 45.027344 C 67.78125 45.027344 66.523438 42.820312 64.367188 44.808594 C 64.367188 44.808594 63.769531 45.675781 63.289062 45.824219 C 63.289062 45.824219 61.683594 46.074219 61.683594 46.792969 C 61.683594 46.792969 60.632812 47.769531 59.976562 48.101562 "/><path style=" stroke:none;fill-rule:nonzero;fill:#3a1e16;fill-opacity:1;" d="M 71.015625 48.007812 C 71.023438 47.929688 71.007812 47.851562 70.988281 47.78125 C 70.964844 47.703125 70.933594 47.632812 70.902344 47.570312 C 70.832031 47.433594 70.742188 47.3125 70.628906 47.210938 C 70.523438 47.113281 70.394531 47.035156 70.257812 47.011719 C 70.222656 47.003906 70.1875 47 70.15625 47 L 70.097656 47 C 70.074219 47 70.046875 47 70.027344 46.992188 C 69.929688 46.976562 69.84375 46.929688 69.777344 46.871094 C 69.644531 46.75 69.558594 46.613281 69.472656 46.476562 C 69.390625 46.34375 69.316406 46.207031 69.230469 46.078125 C 69.152344 45.953125 69.0625 45.839844 68.960938 45.769531 C 68.859375 45.703125 68.753906 45.691406 68.632812 45.722656 L 68.625 45.722656 C 68.601562 45.726562 68.59375 45.726562 68.574219 45.726562 C 68.558594 45.726562 68.550781 45.726562 68.535156 45.734375 C 68.507812 45.734375 68.480469 45.734375 68.453125 45.734375 C 68.398438 45.734375 68.347656 45.726562 68.292969 45.71875 C 68.1875 45.695312 68.085938 45.65625 67.988281 45.597656 C 67.894531 45.539062 67.8125 45.457031 67.75 45.367188 C 67.683594 45.277344 67.636719 45.179688 67.605469 45.082031 L 67.621094 45.113281 C 67.605469 45.085938 67.578125 45.054688 67.558594 45.023438 C 67.535156 44.992188 67.507812 44.957031 67.488281 44.929688 C 67.441406 44.871094 67.386719 44.8125 67.332031 44.753906 C 67.226562 44.640625 67.105469 44.539062 66.980469 44.453125 C 66.726562 44.28125 66.4375 44.171875 66.136719 44.167969 C 65.839844 44.15625 65.535156 44.242188 65.257812 44.382812 C 64.976562 44.523438 64.71875 44.722656 64.472656 44.9375 L 64.5 44.910156 C 64.421875 45.015625 64.34375 45.121094 64.261719 45.214844 C 64.175781 45.3125 64.089844 45.410156 64 45.503906 C 63.910156 45.59375 63.808594 45.683594 63.699219 45.765625 C 63.589844 45.847656 63.472656 45.921875 63.328125 45.964844 L 63.316406 45.96875 L 63.304688 45.96875 C 63.152344 45.992188 62.992188 46.023438 62.832031 46.0625 C 62.675781 46.105469 62.519531 46.148438 62.371094 46.207031 C 62.222656 46.265625 62.082031 46.335938 61.964844 46.433594 C 61.847656 46.53125 61.757812 46.648438 61.753906 46.792969 L 61.753906 46.832031 L 61.730469 46.855469 C 61.460938 47.089844 61.175781 47.316406 60.890625 47.53125 C 60.746094 47.640625 60.59375 47.742188 60.445312 47.839844 C 60.292969 47.9375 60.136719 48.027344 59.976562 48.101562 C 60.132812 48.011719 60.28125 47.910156 60.417969 47.800781 C 60.5625 47.695312 60.703125 47.582031 60.835938 47.460938 C 60.972656 47.34375 61.109375 47.226562 61.242188 47.105469 C 61.375 46.988281 61.507812 46.863281 61.628906 46.742188 L 61.605469 46.792969 C 61.597656 46.699219 61.625 46.59375 61.667969 46.507812 C 61.710938 46.421875 61.773438 46.347656 61.839844 46.289062 C 61.972656 46.164062 62.125 46.074219 62.28125 45.996094 C 62.4375 45.921875 62.597656 45.859375 62.761719 45.808594 C 62.925781 45.761719 63.085938 45.71875 63.261719 45.683594 L 63.242188 45.691406 C 63.332031 45.65625 63.429688 45.59375 63.511719 45.523438 C 63.605469 45.449219 63.691406 45.367188 63.769531 45.28125 C 63.851562 45.195312 63.929688 45.105469 64.003906 45.007812 C 64.078125 44.910156 64.152344 44.8125 64.21875 44.714844 L 64.226562 44.699219 L 64.246094 44.683594 C 64.496094 44.441406 64.777344 44.226562 65.097656 44.058594 C 65.414062 43.890625 65.773438 43.785156 66.152344 43.792969 C 66.339844 43.800781 66.527344 43.839844 66.703125 43.898438 C 66.878906 43.960938 67.046875 44.046875 67.195312 44.148438 C 67.34375 44.253906 67.480469 44.375 67.605469 44.503906 C 67.664062 44.570312 67.722656 44.640625 67.777344 44.714844 C 67.800781 44.753906 67.828125 44.785156 67.855469 44.824219 C 67.882812 44.859375 67.902344 44.898438 67.929688 44.941406 L 67.941406 44.957031 L 67.945312 44.972656 C 67.988281 45.121094 68.070312 45.242188 68.179688 45.320312 C 68.238281 45.355469 68.304688 45.382812 68.375 45.398438 C 68.410156 45.410156 68.441406 45.414062 68.480469 45.414062 C 68.496094 45.414062 68.515625 45.414062 68.535156 45.414062 L 68.582031 45.414062 L 68.570312 45.414062 C 68.660156 45.394531 68.761719 45.390625 68.863281 45.410156 C 68.964844 45.433594 69.054688 45.476562 69.128906 45.527344 C 69.28125 45.640625 69.375 45.792969 69.460938 45.933594 C 69.542969 46.074219 69.605469 46.21875 69.675781 46.351562 C 69.746094 46.488281 69.820312 46.621094 69.910156 46.714844 C 69.957031 46.761719 70.003906 46.792969 70.0625 46.8125 C 70.082031 46.816406 70.089844 46.816406 70.105469 46.816406 L 70.164062 46.820312 C 70.207031 46.828125 70.25 46.832031 70.292969 46.84375 C 70.460938 46.890625 70.601562 46.992188 70.710938 47.113281 C 70.816406 47.234375 70.902344 47.375 70.957031 47.527344 C 70.980469 47.601562 71.003906 47.675781 71.019531 47.757812 C 71.03125 47.851562 71.039062 47.929688 71.015625 48.007812 "/><g clip-rule="nonzero" clip-path="url(#ba03704d22)"><path style=" stroke:none;fill-rule:nonzero;fill:#46a039;fill-opacity:1;" d="M 65.546875 30.445312 C 65.546875 30.445312 59.757812 28.105469 65.742188 22.183594 C 65.742188 22.183594 70.207031 18.175781 70.171875 15.71875 C 70.171875 15.71875 71.898438 22.28125 71.996094 24.207031 C 71.996094 24.207031 72.972656 29.808594 66.074219 30.59375 L 65.546875 30.445312 "/></g><path style=" stroke:none;fill-rule:nonzero;fill:#40752e;fill-opacity:1;" d="M 65.546875 30.445312 C 65.492188 29.917969 65.507812 29.382812 65.558594 28.855469 C 65.582031 28.589844 65.621094 28.328125 65.664062 28.0625 C 65.710938 27.800781 65.769531 27.542969 65.839844 27.28125 C 65.976562 26.765625 66.171875 26.257812 66.421875 25.78125 C 66.542969 25.542969 66.6875 25.304688 66.835938 25.085938 C 66.992188 24.863281 67.164062 24.648438 67.34375 24.449219 C 67.433594 24.351562 67.53125 24.257812 67.632812 24.164062 C 67.679688 24.117188 67.734375 24.074219 67.78125 24.03125 L 67.925781 23.902344 C 68.117188 23.730469 68.292969 23.550781 68.464844 23.355469 C 68.800781 22.972656 69.089844 22.550781 69.308594 22.089844 C 69.527344 21.628906 69.667969 21.128906 69.765625 20.617188 C 69.867188 20.105469 69.914062 19.578125 70.023438 19.058594 C 69.988281 19.585938 69.996094 20.113281 69.941406 20.644531 C 69.886719 21.171875 69.777344 21.703125 69.566406 22.210938 C 69.367188 22.710938 69.070312 23.179688 68.726562 23.59375 C 68.550781 23.796875 68.363281 23.992188 68.164062 24.175781 L 67.878906 24.4375 C 67.785156 24.527344 67.695312 24.617188 67.609375 24.707031 C 67.269531 25.082031 66.96875 25.5 66.726562 25.953125 C 66.472656 26.398438 66.277344 26.878906 66.113281 27.371094 C 66.027344 27.617188 65.957031 27.863281 65.894531 28.117188 C 65.828125 28.371094 65.769531 28.625 65.726562 28.882812 C 65.648438 29.394531 65.578125 29.917969 65.546875 30.445312 "/><path style=" stroke:none;fill-rule:nonzero;fill:#40752e;fill-opacity:1;" d="M 65.726562 34.929688 C 65.726562 34.929688 69.148438 31.164062 72.042969 31.199219 C 72.042969 31.199219 66.703125 33.054688 66.355469 35.800781 C 66.355469 35.800781 65.589844 36.859375 65.726562 34.929688 "/><g clip-rule="nonzero" clip-path="url(#e1207452a3)"><path style=" stroke:none;fill-rule:nonzero;fill:#5fa932;fill-opacity:1;" d="M 69.53125 31.515625 C 69.53125 31.515625 70.132812 25.253906 77.449219 29.394531 C 77.449219 29.394531 82.503906 32.597656 84.832031 31.875 C 84.832031 31.875 79.078125 35.386719 77.265625 36.023438 C 77.265625 36.023438 72.214844 38.535156 69.535156 32.070312 L 69.53125 31.515625 "/></g><path style=" stroke:none;fill-rule:nonzero;fill:#40752e;fill-opacity:1;" d="M 69.535156 32.070312 C 69.726562 31.9375 69.929688 31.8125 70.140625 31.699219 C 70.347656 31.585938 70.558594 31.484375 70.773438 31.382812 C 71.207031 31.1875 71.648438 31.019531 72.105469 30.886719 C 72.5625 30.75 73.03125 30.648438 73.5 30.578125 C 73.96875 30.507812 74.449219 30.472656 74.929688 30.476562 C 75.410156 30.480469 75.882812 30.519531 76.359375 30.605469 C 76.476562 30.628906 76.59375 30.65625 76.710938 30.675781 L 76.886719 30.714844 L 77.058594 30.761719 C 77.175781 30.792969 77.289062 30.828125 77.40625 30.863281 L 77.742188 30.984375 C 77.851562 31.019531 77.964844 31.070312 78.070312 31.117188 L 78.238281 31.1875 L 78.316406 31.226562 L 78.398438 31.269531 L 78.71875 31.429688 L 78.796875 31.472656 L 78.871094 31.515625 L 79.027344 31.609375 C 79.4375 31.851562 79.816406 32.136719 80.171875 32.441406 C 80.070312 32.382812 79.96875 32.324219 79.867188 32.265625 C 79.769531 32.207031 79.671875 32.140625 79.566406 32.085938 C 79.457031 32.03125 79.355469 31.980469 79.253906 31.917969 C 79.230469 31.902344 79.203125 31.894531 79.179688 31.875 L 79.101562 31.839844 L 78.941406 31.761719 C 78.523438 31.558594 78.085938 31.402344 77.644531 31.261719 L 77.3125 31.164062 C 77.203125 31.132812 77.089844 31.113281 76.976562 31.085938 L 76.8125 31.046875 L 76.640625 31.015625 C 76.53125 30.992188 76.417969 30.972656 76.300781 30.957031 L 75.960938 30.914062 C 75.847656 30.898438 75.730469 30.890625 75.617188 30.878906 C 75.558594 30.875 75.503906 30.871094 75.445312 30.863281 L 75.277344 30.859375 C 75.160156 30.855469 75.046875 30.847656 74.929688 30.847656 C 74.011719 30.835938 73.089844 30.957031 72.1875 31.160156 C 71.734375 31.269531 71.285156 31.390625 70.847656 31.542969 C 70.738281 31.582031 70.628906 31.617188 70.519531 31.65625 L 70.191406 31.78125 C 70.085938 31.824219 69.972656 31.867188 69.867188 31.914062 C 69.75 31.96875 69.644531 32.015625 69.535156 32.070312 "/><path style=" stroke:none;fill-rule:nonzero;fill:#40752e;fill-opacity:1;" d="M 62.703125 33.253906 C 62.703125 33.253906 65.589844 34.390625 65.726562 38.15625 C 65.726562 38.15625 64.109375 33.675781 62.351562 33.644531 C 62.351562 33.644531 57.570312 30.988281 62.703125 33.253906 "/><g clip-rule="nonzero" clip-path="url(#b13427f509)"><path style=" stroke:none;fill-rule:nonzero;fill:#5fa932;fill-opacity:1;" d="M 63.3125 33.507812 C 63.3125 33.507812 61.929688 39.640625 55.195312 34.597656 C 55.195312 34.597656 50.582031 30.773438 48.1875 31.191406 C 48.1875 31.191406 54.332031 28.445312 56.210938 28.046875 C 56.210938 28.046875 64.765625 26.761719 63.175781 33.957031 L 63.3125 33.507812 "/></g><path style=" stroke:none;fill-rule:nonzero;fill:#40752e;fill-opacity:1;" d="M 62.703125 33.253906 C 62.539062 33.0625 62.355469 32.882812 62.164062 32.710938 C 61.976562 32.539062 61.78125 32.382812 61.578125 32.230469 L 61.425781 32.117188 L 61.273438 32.011719 C 61.171875 31.9375 61.066406 31.871094 60.957031 31.808594 C 60.851562 31.742188 60.746094 31.675781 60.632812 31.613281 C 60.519531 31.554688 60.414062 31.496094 60.300781 31.433594 C 59.855469 31.210938 59.394531 31.015625 58.921875 30.863281 C 58.445312 30.714844 57.960938 30.59375 57.46875 30.507812 L 57.101562 30.449219 C 56.980469 30.433594 56.855469 30.421875 56.726562 30.410156 C 56.664062 30.40625 56.605469 30.394531 56.542969 30.390625 L 56.355469 30.378906 C 56.230469 30.375 56.105469 30.363281 55.980469 30.359375 C 55.730469 30.359375 55.480469 30.34375 55.230469 30.359375 L 54.855469 30.367188 L 54.480469 30.394531 C 53.480469 30.472656 52.480469 30.648438 51.488281 30.875 C 52.4375 30.496094 53.429688 30.234375 54.449219 30.097656 L 54.835938 30.050781 C 54.960938 30.039062 55.089844 30.035156 55.21875 30.023438 L 55.410156 30.011719 C 55.472656 30.007812 55.539062 30.007812 55.601562 30.007812 L 55.988281 30.003906 C 56.503906 30.011719 57.015625 30.046875 57.527344 30.136719 C 58.039062 30.222656 58.542969 30.351562 59.03125 30.523438 C 59.523438 30.699219 59.992188 30.917969 60.441406 31.175781 C 60.890625 31.433594 61.304688 31.746094 61.695312 32.085938 C 61.886719 32.257812 62.066406 32.441406 62.238281 32.636719 C 62.410156 32.835938 62.570312 33.039062 62.703125 33.253906 "/><g style="fill:#3c600b;fill-opacity:1;"><g transform="translate(86.59335, 34.695504)"><path style="stroke:none" d="M 2.65625 -8.125 L 2.65625 -3.265625 C 2.65625 -2.773438 2.773438 -2.398438 3.015625 -2.140625 C 3.253906 -1.878906 3.609375 -1.75 4.078125 -1.75 C 4.535156 -1.75 4.890625 -1.878906 5.140625 -2.140625 C 5.390625 -2.398438 5.515625 -2.773438 5.515625 -3.265625 L 5.515625 -8.125 L 7.484375 -8.125 L 7.484375 -3.28125 C 7.484375 -2.550781 7.328125 -1.9375 7.015625 -1.4375 C 6.710938 -0.9375 6.300781 -0.554688 5.78125 -0.296875 C 5.257812 -0.046875 4.679688 0.078125 4.046875 0.078125 C 3.398438 0.078125 2.820312 -0.046875 2.3125 -0.296875 C 1.8125 -0.546875 1.414062 -0.921875 1.125 -1.421875 C 0.832031 -1.929688 0.6875 -2.550781 0.6875 -3.28125 L 0.6875 -8.125 Z M 2.65625 -8.125 "/></g></g><g style="fill:#3c600b;fill-opacity:1;"><g transform="translate(94.750747, 34.695504)"><path style="stroke:none" d="M 3.65625 0.078125 C 3.0625 0.078125 2.53125 -0.015625 2.0625 -0.203125 C 1.59375 -0.398438 1.21875 -0.6875 0.9375 -1.0625 C 0.65625 -1.4375 0.503906 -1.894531 0.484375 -2.4375 L 2.59375 -2.4375 C 2.625 -2.132812 2.726562 -1.898438 2.90625 -1.734375 C 3.082031 -1.578125 3.3125 -1.5 3.59375 -1.5 C 3.894531 -1.5 4.128906 -1.566406 4.296875 -1.703125 C 4.460938 -1.835938 4.546875 -2.023438 4.546875 -2.265625 C 4.546875 -2.472656 4.476562 -2.640625 4.34375 -2.765625 C 4.207031 -2.898438 4.039062 -3.007812 3.84375 -3.09375 C 3.644531 -3.175781 3.367188 -3.269531 3.015625 -3.375 C 2.484375 -3.539062 2.050781 -3.703125 1.71875 -3.859375 C 1.394531 -4.023438 1.113281 -4.265625 0.875 -4.578125 C 0.632812 -4.898438 0.515625 -5.316406 0.515625 -5.828125 C 0.515625 -6.578125 0.785156 -7.164062 1.328125 -7.59375 C 1.878906 -8.03125 2.59375 -8.25 3.46875 -8.25 C 4.363281 -8.25 5.082031 -8.03125 5.625 -7.59375 C 6.175781 -7.164062 6.472656 -6.570312 6.515625 -5.8125 L 4.375 -5.8125 C 4.363281 -6.070312 4.269531 -6.273438 4.09375 -6.421875 C 3.914062 -6.578125 3.6875 -6.65625 3.40625 -6.65625 C 3.164062 -6.65625 2.972656 -6.59375 2.828125 -6.46875 C 2.679688 -6.34375 2.609375 -6.160156 2.609375 -5.921875 C 2.609375 -5.648438 2.726562 -5.441406 2.96875 -5.296875 C 3.21875 -5.148438 3.609375 -4.992188 4.140625 -4.828125 C 4.660156 -4.648438 5.082031 -4.476562 5.40625 -4.3125 C 5.738281 -4.15625 6.023438 -3.921875 6.265625 -3.609375 C 6.503906 -3.304688 6.625 -2.910156 6.625 -2.421875 C 6.625 -1.953125 6.503906 -1.53125 6.265625 -1.15625 C 6.035156 -0.78125 5.695312 -0.476562 5.25 -0.25 C 4.800781 -0.03125 4.269531 0.078125 3.65625 0.078125 Z M 3.65625 0.078125 "/></g></g><g style="fill:#3c600b;fill-opacity:1;"><g transform="translate(101.866772, 34.695504)"><path style="stroke:none" d=""/></g></g><g style="fill:#3c600b;fill-opacity:1;"><g transform="translate(104.319772, 34.695504)"><path style="stroke:none" d="M 5.78125 -1.4375 L 2.75 -1.4375 L 2.25 0 L 0.1875 0 L 3.125 -8.125 L 5.421875 -8.125 L 8.359375 0 L 6.265625 0 Z M 5.265625 -2.96875 L 4.265625 -5.9375 L 3.265625 -2.96875 Z M 5.265625 -2.96875 "/></g></g><g style="fill:#3c600b;fill-opacity:1;"><g transform="translate(112.847427, 34.695504)"><path style="stroke:none" d="M 6.109375 -5.5625 C 5.960938 -5.832031 5.753906 -6.035156 5.484375 -6.171875 C 5.210938 -6.316406 4.890625 -6.390625 4.515625 -6.390625 C 3.867188 -6.390625 3.351562 -6.175781 2.96875 -5.75 C 2.582031 -5.332031 2.390625 -4.773438 2.390625 -4.078125 C 2.390625 -3.328125 2.59375 -2.738281 3 -2.3125 C 3.40625 -1.894531 3.960938 -1.6875 4.671875 -1.6875 C 5.160156 -1.6875 5.570312 -1.8125 5.90625 -2.0625 C 6.25 -2.3125 6.492188 -2.664062 6.640625 -3.125 L 4.140625 -3.125 L 4.140625 -4.578125 L 8.4375 -4.578125 L 8.4375 -2.75 C 8.289062 -2.25 8.039062 -1.785156 7.6875 -1.359375 C 7.34375 -0.941406 6.898438 -0.597656 6.359375 -0.328125 C 5.816406 -0.0664062 5.207031 0.0625 4.53125 0.0625 C 3.726562 0.0625 3.007812 -0.113281 2.375 -0.46875 C 1.75 -0.820312 1.257812 -1.3125 0.90625 -1.9375 C 0.550781 -2.5625 0.375 -3.273438 0.375 -4.078125 C 0.375 -4.878906 0.550781 -5.59375 0.90625 -6.21875 C 1.257812 -6.851562 1.75 -7.34375 2.375 -7.6875 C 3 -8.039062 3.710938 -8.21875 4.515625 -8.21875 C 5.484375 -8.21875 6.300781 -7.984375 6.96875 -7.515625 C 7.644531 -7.046875 8.085938 -6.394531 8.296875 -5.5625 Z M 6.109375 -5.5625 "/></g></g><g style="fill:#3c600b;fill-opacity:1;"><g transform="translate(121.667786, 34.695504)"><path style="stroke:none" d=""/></g></g><g style="fill:#3c600b;fill-opacity:1;"><g transform="translate(86.59335, 47.562895)"><path style="stroke:none" d="M 3.65625 0.078125 C 3.0625 0.078125 2.53125 -0.015625 2.0625 -0.203125 C 1.59375 -0.398438 1.21875 -0.6875 0.9375 -1.0625 C 0.65625 -1.4375 0.503906 -1.894531 0.484375 -2.4375 L 2.59375 -2.4375 C 2.625 -2.132812 2.726562 -1.898438 2.90625 -1.734375 C 3.082031 -1.578125 3.3125 -1.5 3.59375 -1.5 C 3.894531 -1.5 4.128906 -1.566406 4.296875 -1.703125 C 4.460938 -1.835938 4.546875 -2.023438 4.546875 -2.265625 C 4.546875 -2.472656 4.476562 -2.640625 4.34375 -2.765625 C 4.207031 -2.898438 4.039062 -3.007812 3.84375 -3.09375 C 3.644531 -3.175781 3.367188 -3.269531 3.015625 -3.375 C 2.484375 -3.539062 2.050781 -3.703125 1.71875 -3.859375 C 1.394531 -4.023438 1.113281 -4.265625 0.875 -4.578125 C 0.632812 -4.898438 0.515625 -5.316406 0.515625 -5.828125 C 0.515625 -6.578125 0.785156 -7.164062 1.328125 -7.59375 C 1.878906 -8.03125 2.59375 -8.25 3.46875 -8.25 C 4.363281 -8.25 5.082031 -8.03125 5.625 -7.59375 C 6.175781 -7.164062 6.472656 -6.570312 6.515625 -5.8125 L 4.375 -5.8125 C 4.363281 -6.070312 4.269531 -6.273438 4.09375 -6.421875 C 3.914062 -6.578125 3.6875 -6.65625 3.40625 -6.65625 C 3.164062 -6.65625 2.972656 -6.59375 2.828125 -6.46875 C 2.679688 -6.34375 2.609375 -6.160156 2.609375 -5.921875 C 2.609375 -5.648438 2.726562 -5.441406 2.96875 -5.296875 C 3.21875 -5.148438 3.609375 -4.992188 4.140625 -4.828125 C 4.660156 -4.648438 5.082031 -4.476562 5.40625 -4.3125 C 5.738281 -4.15625 6.023438 -3.921875 6.265625 -3.609375 C 6.503906 -3.304688 6.625 -2.910156 6.625 -2.421875 C 6.625 -1.953125 6.503906 -1.53125 6.265625 -1.15625 C 6.035156 -0.78125 5.695312 -0.476562 5.25 -0.25 C 4.800781 -0.03125 4.269531 0.078125 3.65625 0.078125 Z M 3.65625 0.078125 "/></g></g><g style="fill:#3c600b;fill-opacity:1;"><g transform="translate(93.709376, 47.562895)"><path style="stroke:none" d="M 3.65625 0.09375 C 3.019531 0.09375 2.445312 -0.0390625 1.9375 -0.3125 C 1.4375 -0.582031 1.039062 -0.96875 0.75 -1.46875 C 0.46875 -1.96875 0.328125 -2.554688 0.328125 -3.234375 C 0.328125 -3.890625 0.472656 -4.472656 0.765625 -4.984375 C 1.054688 -5.492188 1.457031 -5.878906 1.96875 -6.140625 C 2.476562 -6.410156 3.050781 -6.546875 3.6875 -6.546875 C 4.3125 -6.546875 4.878906 -6.410156 5.390625 -6.140625 C 5.898438 -5.878906 6.300781 -5.492188 6.59375 -4.984375 C 6.894531 -4.472656 7.046875 -3.890625 7.046875 -3.234375 C 7.046875 -2.566406 6.894531 -1.976562 6.59375 -1.46875 C 6.289062 -0.96875 5.882812 -0.582031 5.375 -0.3125 C 4.863281 -0.0390625 4.289062 0.09375 3.65625 0.09375 Z M 3.65625 -1.625 C 4.03125 -1.625 4.351562 -1.757812 4.625 -2.03125 C 4.894531 -2.3125 5.03125 -2.710938 5.03125 -3.234375 C 5.03125 -3.742188 4.898438 -4.140625 4.640625 -4.421875 C 4.378906 -4.703125 4.0625 -4.84375 3.6875 -4.84375 C 3.300781 -4.84375 2.976562 -4.703125 2.71875 -4.421875 C 2.46875 -4.148438 2.34375 -3.753906 2.34375 -3.234375 C 2.34375 -2.710938 2.46875 -2.3125 2.71875 -2.03125 C 2.96875 -1.757812 3.28125 -1.625 3.65625 -1.625 Z M 3.65625 -1.625 "/></g></g><g style="fill:#3c600b;fill-opacity:1;"><g transform="translate(101.079961, 47.562895)"><path style="stroke:none" d="M 2.703125 -8.5625 L 2.703125 0 L 0.71875 0 L 0.71875 -8.5625 Z M 2.703125 -8.5625 "/></g></g><g style="fill:#3c600b;fill-opacity:1;"><g transform="translate(104.49334, 47.562895)"><path style="stroke:none" d="M 7.09375 -6.453125 L 7.09375 0 L 5.125 0 L 5.125 -0.875 C 4.914062 -0.59375 4.640625 -0.363281 4.296875 -0.1875 C 3.953125 -0.0195312 3.570312 0.0625 3.15625 0.0625 C 2.664062 0.0625 2.226562 -0.046875 1.84375 -0.265625 C 1.46875 -0.484375 1.175781 -0.800781 0.96875 -1.21875 C 0.757812 -1.632812 0.65625 -2.125 0.65625 -2.6875 L 0.65625 -6.453125 L 2.625 -6.453125 L 2.625 -2.953125 C 2.625 -2.515625 2.734375 -2.175781 2.953125 -1.9375 C 3.179688 -1.707031 3.484375 -1.59375 3.859375 -1.59375 C 4.253906 -1.59375 4.5625 -1.707031 4.78125 -1.9375 C 5.007812 -2.175781 5.125 -2.515625 5.125 -2.953125 L 5.125 -6.453125 Z M 7.09375 -6.453125 "/></g></g><g style="fill:#3c600b;fill-opacity:1;"><g transform="translate(112.292039, 47.562895)"><path style="stroke:none" d="M 4.3125 -1.671875 L 4.3125 0 L 3.3125 0 C 2.59375 0 2.03125 -0.171875 1.625 -0.515625 C 1.226562 -0.867188 1.03125 -1.445312 1.03125 -2.25 L 1.03125 -4.8125 L 0.25 -4.8125 L 0.25 -6.453125 L 1.03125 -6.453125 L 1.03125 -8.03125 L 3.015625 -8.03125 L 3.015625 -6.453125 L 4.3125 -6.453125 L 4.3125 -4.8125 L 3.015625 -4.8125 L 3.015625 -2.21875 C 3.015625 -2.03125 3.054688 -1.890625 3.140625 -1.796875 C 3.234375 -1.710938 3.390625 -1.671875 3.609375 -1.671875 Z M 4.3125 -1.671875 "/></g></g><g style="fill:#3c600b;fill-opacity:1;"><g transform="translate(116.989774, 47.562895)"><path style="stroke:none" d="M 1.71875 -7.125 C 1.363281 -7.125 1.078125 -7.226562 0.859375 -7.4375 C 0.640625 -7.644531 0.53125 -7.898438 0.53125 -8.203125 C 0.53125 -8.503906 0.640625 -8.757812 0.859375 -8.96875 C 1.078125 -9.175781 1.363281 -9.28125 1.71875 -9.28125 C 2.050781 -9.28125 2.328125 -9.175781 2.546875 -8.96875 C 2.773438 -8.757812 2.890625 -8.503906 2.890625 -8.203125 C 2.890625 -7.898438 2.773438 -7.644531 2.546875 -7.4375 C 2.328125 -7.226562 2.050781 -7.125 1.71875 -7.125 Z M 2.703125 -6.453125 L 2.703125 0 L 0.71875 0 L 0.71875 -6.453125 Z M 2.703125 -6.453125 "/></g></g><g style="fill:#3c600b;fill-opacity:1;"><g transform="translate(120.403153, 47.562895)"><path style="stroke:none" d="M 3.65625 0.09375 C 3.019531 0.09375 2.445312 -0.0390625 1.9375 -0.3125 C 1.4375 -0.582031 1.039062 -0.96875 0.75 -1.46875 C 0.46875 -1.96875 0.328125 -2.554688 0.328125 -3.234375 C 0.328125 -3.890625 0.472656 -4.472656 0.765625 -4.984375 C 1.054688 -5.492188 1.457031 -5.878906 1.96875 -6.140625 C 2.476562 -6.410156 3.050781 -6.546875 3.6875 -6.546875 C 4.3125 -6.546875 4.878906 -6.410156 5.390625 -6.140625 C 5.898438 -5.878906 6.300781 -5.492188 6.59375 -4.984375 C 6.894531 -4.472656 7.046875 -3.890625 7.046875 -3.234375 C 7.046875 -2.566406 6.894531 -1.976562 6.59375 -1.46875 C 6.289062 -0.96875 5.882812 -0.582031 5.375 -0.3125 C 4.863281 -0.0390625 4.289062 0.09375 3.65625 0.09375 Z M 3.65625 -1.625 C 4.03125 -1.625 4.351562 -1.757812 4.625 -2.03125 C 4.894531 -2.3125 5.03125 -2.710938 5.03125 -3.234375 C 5.03125 -3.742188 4.898438 -4.140625 4.640625 -4.421875 C 4.378906 -4.703125 4.0625 -4.84375 3.6875 -4.84375 C 3.300781 -4.84375 2.976562 -4.703125 2.71875 -4.421875 C 2.46875 -4.148438 2.34375 -3.753906 2.34375 -3.234375 C 2.34375 -2.710938 2.46875 -2.3125 2.71875 -2.03125 C 2.96875 -1.757812 3.28125 -1.625 3.65625 -1.625 Z M 3.65625 -1.625 "/></g></g><g style="fill:#3c600b;fill-opacity:1;"><g transform="translate(127.773737, 47.562895)"><path style="stroke:none" d="M 4.65625 -6.53125 C 5.40625 -6.53125 6.003906 -6.285156 6.453125 -5.796875 C 6.910156 -5.304688 7.140625 -4.632812 7.140625 -3.78125 L 7.140625 0 L 5.171875 0 L 5.171875 -3.515625 C 5.171875 -3.941406 5.054688 -4.273438 4.828125 -4.515625 C 4.609375 -4.753906 4.3125 -4.875 3.9375 -4.875 C 3.5625 -4.875 3.257812 -4.753906 3.03125 -4.515625 C 2.8125 -4.273438 2.703125 -3.941406 2.703125 -3.515625 L 2.703125 0 L 0.71875 0 L 0.71875 -6.453125 L 2.703125 -6.453125 L 2.703125 -5.609375 C 2.898438 -5.890625 3.164062 -6.113281 3.5 -6.28125 C 3.84375 -6.445312 4.226562 -6.53125 4.65625 -6.53125 Z M 4.65625 -6.53125 "/></g></g><g style="fill:#3c600b;fill-opacity:1;"><g transform="translate(135.572437, 47.562895)"><path style="stroke:none" d="M 3.34375 0.09375 C 2.78125 0.09375 2.28125 0 1.84375 -0.1875 C 1.40625 -0.382812 1.054688 -0.648438 0.796875 -0.984375 C 0.546875 -1.328125 0.40625 -1.707031 0.375 -2.125 L 2.328125 -2.125 C 2.347656 -1.894531 2.453125 -1.707031 2.640625 -1.5625 C 2.828125 -1.425781 3.054688 -1.359375 3.328125 -1.359375 C 3.566406 -1.359375 3.753906 -1.40625 3.890625 -1.5 C 4.023438 -1.601562 4.09375 -1.734375 4.09375 -1.890625 C 4.09375 -2.078125 3.992188 -2.210938 3.796875 -2.296875 C 3.609375 -2.390625 3.300781 -2.488281 2.875 -2.59375 C 2.40625 -2.695312 2.015625 -2.804688 1.703125 -2.921875 C 1.398438 -3.046875 1.132812 -3.238281 0.90625 -3.5 C 0.6875 -3.757812 0.578125 -4.109375 0.578125 -4.546875 C 0.578125 -4.921875 0.675781 -5.257812 0.875 -5.5625 C 1.082031 -5.863281 1.382812 -6.101562 1.78125 -6.28125 C 2.1875 -6.457031 2.660156 -6.546875 3.203125 -6.546875 C 4.015625 -6.546875 4.65625 -6.34375 5.125 -5.9375 C 5.59375 -5.539062 5.859375 -5.015625 5.921875 -4.359375 L 4.09375 -4.359375 C 4.0625 -4.578125 3.960938 -4.75 3.796875 -4.875 C 3.628906 -5.007812 3.414062 -5.078125 3.15625 -5.078125 C 2.914062 -5.078125 2.734375 -5.03125 2.609375 -4.9375 C 2.492188 -4.851562 2.4375 -4.734375 2.4375 -4.578125 C 2.4375 -4.398438 2.53125 -4.265625 2.71875 -4.171875 C 2.914062 -4.078125 3.222656 -3.984375 3.640625 -3.890625 C 4.117188 -3.765625 4.507812 -3.640625 4.8125 -3.515625 C 5.113281 -3.398438 5.378906 -3.207031 5.609375 -2.9375 C 5.835938 -2.675781 5.957031 -2.320312 5.96875 -1.875 C 5.96875 -1.5 5.859375 -1.160156 5.640625 -0.859375 C 5.429688 -0.566406 5.128906 -0.332031 4.734375 -0.15625 C 4.335938 0.0078125 3.875 0.09375 3.34375 0.09375 Z M 3.34375 0.09375 "/></g></g></g></svg>