<svg xmlns="http://www.w3.org/2000/svg" xmlns:xlink="http://www.w3.org/1999/xlink" width="250" zoomAndPan="magnify" viewBox="0 0 187.5 74.999997" height="100" preserveAspectRatio="xMidYMid meet" version="1.2"><defs><clipPath id="7da8450bce"><path d="M 53.363281 42.445312 L 78.328125 42.445312 L 78.328125 50.542969 L 53.363281 50.542969 Z M 53.363281 42.445312 "/></clipPath><clipPath id="e9de76e603"><path d="M 63 15.71875 L 73 15.71875 L 73 31 L 63 31 Z M 63 15.71875 "/></clipPath><clipPath id="a64e8765c7"><path d="M 69.527344 27.828125 L 84.832031 27.828125 L 84.832031 36.3125 L 69.527344 36.3125 Z M 69.527344 27.828125 "/></clipPath><clipPath id="28b2de9820"><path d="M 48.183594 27 L 64 27 L 64 37 L 48.183594 37 Z M 48.183594 27 "/></clipPath></defs><g id="56deda217a"><g clip-rule="nonzero" clip-path="url(#7da8450bce)"><path style=" stroke:none;fill-rule:nonzero;fill:#643622;fill-opacity:1;" d="M 53.398438 49.246094 C 53.398438 49.246094 55.734375 48.3125 56.355469 47.75 C 56.355469 47.75 56.9375 46.511719 57.484375 46.472656 C 57.484375 46.472656 58.214844 46.011719 58.105469 45.785156 C 57.992188 45.5625 58.542969 44.894531 59.527344 44.894531 C 60.476562 44.894531 60.613281 43.730469 61.789062 43.785156 C 61.839844 43.785156 61.886719 43.789062 61.933594 43.796875 C 61.933594 43.796875 62.921875 43.875 63.246094 43.347656 C 63.246094 43.347656 65.253906 41.542969 68.683594 43.167969 C 68.683594 43.167969 69.632812 43.875 70.394531 44 C 70.394531 44 72.949219 44.203125 72.949219 44.789062 C 72.949219 44.789062 74.261719 44.984375 73.53125 45.683594 C 73.53125 45.683594 73.789062 46.542969 74.664062 46.777344 C 74.664062 46.777344 75.0625 46.910156 75.210938 47.519531 C 75.210938 47.519531 75.46875 47.800781 75.90625 47.78125 C 75.90625 47.78125 76.085938 47.941406 76.238281 48.390625 C 76.238281 48.390625 77.84375 49.667969 78.28125 49.652344 C 78.28125 49.652344 70.40625 51.121094 67.125 50.289062 C 67.0625 50.273438 66.996094 50.257812 66.933594 50.234375 C 63.757812 49.265625 63.304688 50.273438 59.878906 50.476562 C 59.875 50.480469 54.53125 50.042969 53.398438 49.246094 "/></g><path style=" stroke:none;fill-rule:nonzero;fill:#000000;fill-opacity:1;" d="M 65.167969 29.972656 C 65.167969 29.972656 66.851562 45.1875 62.074219 47.15625 C 62.074219 47.15625 66.085938 45.75 68.261719 47.792969 C 68.261719 47.792969 64.96875 32.824219 67.007812 30.523438 C 67.007812 30.523438 68.011719 24.253906 65.167969 29.972656 "/><path style=" stroke:none;fill-rule:nonzero;fill:#643622;fill-opacity:1;" d="M 71.015625 47.699219 C 71.082031 47.429688 70.738281 46.617188 70.117188 46.617188 C 69.519531 46.617188 69.433594 45.210938 68.699219 45.273438 C 68.667969 45.273438 68.640625 45.277344 68.609375 45.289062 C 68.609375 45.289062 67.988281 45.386719 67.78125 44.75 C 67.78125 44.75 66.523438 42.5625 64.367188 44.53125 C 64.367188 44.53125 63.769531 45.390625 63.289062 45.539062 C 63.289062 45.539062 61.683594 45.785156 61.683594 46.5 C 61.683594 46.5 60.632812 47.464844 59.976562 47.796875 "/><path style=" stroke:none;fill-rule:nonzero;fill:#3a1e16;fill-opacity:1;" d="M 71.015625 47.699219 C 71.023438 47.625 71.007812 47.546875 70.988281 47.476562 C 70.964844 47.402344 70.933594 47.332031 70.902344 47.269531 C 70.832031 47.136719 70.742188 47.011719 70.628906 46.910156 C 70.523438 46.816406 70.394531 46.742188 70.257812 46.714844 C 70.222656 46.707031 70.1875 46.703125 70.15625 46.703125 L 70.097656 46.703125 C 70.074219 46.703125 70.046875 46.703125 70.027344 46.699219 C 69.929688 46.683594 69.84375 46.632812 69.777344 46.574219 C 69.644531 46.457031 69.558594 46.320312 69.472656 46.1875 C 69.390625 46.050781 69.316406 45.917969 69.230469 45.792969 C 69.152344 45.667969 69.0625 45.554688 68.960938 45.488281 C 68.859375 45.417969 68.753906 45.40625 68.632812 45.4375 L 68.625 45.4375 C 68.601562 45.445312 68.59375 45.445312 68.574219 45.445312 C 68.558594 45.445312 68.550781 45.445312 68.535156 45.449219 C 68.507812 45.449219 68.480469 45.449219 68.453125 45.449219 C 68.398438 45.449219 68.347656 45.445312 68.292969 45.433594 C 68.1875 45.414062 68.085938 45.375 67.988281 45.316406 C 67.894531 45.257812 67.8125 45.175781 67.75 45.085938 C 67.683594 44.996094 67.636719 44.898438 67.605469 44.804688 L 67.621094 44.835938 C 67.605469 44.808594 67.578125 44.777344 67.558594 44.746094 C 67.535156 44.714844 67.507812 44.679688 67.488281 44.65625 C 67.441406 44.597656 67.386719 44.539062 67.332031 44.480469 C 67.226562 44.367188 67.105469 44.265625 66.980469 44.179688 C 66.726562 44.007812 66.4375 43.902344 66.136719 43.898438 C 65.839844 43.886719 65.535156 43.972656 65.257812 44.109375 C 64.976562 44.25 64.71875 44.445312 64.472656 44.660156 L 64.5 44.632812 C 64.421875 44.738281 64.34375 44.839844 64.261719 44.9375 C 64.175781 45.035156 64.089844 45.128906 64 45.21875 C 63.910156 45.3125 63.808594 45.402344 63.699219 45.480469 C 63.589844 45.5625 63.472656 45.636719 63.328125 45.679688 L 63.316406 45.683594 L 63.304688 45.683594 C 63.152344 45.707031 62.992188 45.738281 62.832031 45.773438 C 62.675781 45.816406 62.519531 45.859375 62.371094 45.917969 C 62.222656 45.976562 62.082031 46.046875 61.964844 46.144531 C 61.847656 46.238281 61.757812 46.355469 61.753906 46.5 L 61.753906 46.539062 L 61.730469 46.558594 C 61.460938 46.792969 61.175781 47.019531 60.890625 47.230469 C 60.746094 47.339844 60.59375 47.441406 60.445312 47.535156 C 60.292969 47.632812 60.136719 47.722656 59.976562 47.796875 C 60.132812 47.707031 60.28125 47.605469 60.417969 47.5 C 60.5625 47.390625 60.703125 47.28125 60.835938 47.160156 C 60.972656 47.042969 61.109375 46.925781 61.242188 46.808594 C 61.375 46.691406 61.507812 46.570312 61.628906 46.445312 L 61.605469 46.5 C 61.597656 46.40625 61.625 46.304688 61.667969 46.21875 C 61.710938 46.132812 61.773438 46.058594 61.839844 46 C 61.972656 45.875 62.125 45.785156 62.28125 45.710938 C 62.4375 45.636719 62.597656 45.574219 62.761719 45.523438 C 62.925781 45.476562 63.085938 45.433594 63.261719 45.402344 L 63.242188 45.40625 C 63.332031 45.375 63.429688 45.3125 63.511719 45.242188 C 63.605469 45.167969 63.691406 45.085938 63.769531 45 C 63.851562 44.917969 63.929688 44.824219 64.003906 44.730469 C 64.078125 44.632812 64.152344 44.539062 64.21875 44.441406 L 64.226562 44.425781 L 64.246094 44.410156 C 64.496094 44.167969 64.777344 43.957031 65.097656 43.789062 C 65.414062 43.625 65.773438 43.519531 66.152344 43.527344 C 66.339844 43.535156 66.527344 43.570312 66.703125 43.628906 C 66.878906 43.695312 67.046875 43.78125 67.195312 43.882812 C 67.34375 43.984375 67.480469 44.105469 67.605469 44.234375 C 67.664062 44.296875 67.722656 44.367188 67.777344 44.441406 C 67.800781 44.480469 67.828125 44.511719 67.855469 44.546875 C 67.882812 44.585938 67.902344 44.621094 67.929688 44.664062 L 67.941406 44.679688 L 67.945312 44.699219 C 67.988281 44.839844 68.070312 44.964844 68.179688 45.039062 C 68.238281 45.078125 68.304688 45.101562 68.375 45.117188 C 68.410156 45.128906 68.441406 45.136719 68.480469 45.136719 C 68.496094 45.136719 68.515625 45.136719 68.535156 45.136719 L 68.582031 45.136719 L 68.570312 45.136719 C 68.660156 45.113281 68.761719 45.109375 68.863281 45.128906 C 68.964844 45.152344 69.054688 45.195312 69.128906 45.246094 C 69.28125 45.359375 69.375 45.507812 69.460938 45.648438 C 69.542969 45.785156 69.605469 45.929688 69.675781 46.0625 C 69.746094 46.195312 69.820312 46.328125 69.910156 46.421875 C 69.957031 46.46875 70.003906 46.5 70.0625 46.515625 C 70.082031 46.523438 70.089844 46.523438 70.105469 46.523438 L 70.164062 46.527344 C 70.207031 46.53125 70.25 46.539062 70.292969 46.546875 C 70.460938 46.597656 70.601562 46.699219 70.710938 46.816406 C 70.816406 46.9375 70.902344 47.078125 70.957031 47.226562 C 70.980469 47.300781 71.003906 47.375 71.019531 47.457031 C 71.03125 47.546875 71.039062 47.625 71.015625 47.699219 "/><g clip-rule="nonzero" clip-path="url(#e9de76e603)"><path style=" stroke:none;fill-rule:nonzero;fill:#46a039;fill-opacity:1;" d="M 65.546875 30.304688 C 65.546875 30.304688 59.757812 27.988281 65.742188 22.121094 C 65.742188 22.121094 70.207031 18.152344 70.171875 15.71875 C 70.171875 15.71875 71.898438 22.21875 71.996094 24.128906 C 71.996094 24.128906 72.972656 29.675781 66.074219 30.453125 L 65.546875 30.304688 "/></g><path style=" stroke:none;fill-rule:nonzero;fill:#000000;fill-opacity:1;" d="M 65.546875 30.304688 C 65.492188 29.78125 65.507812 29.253906 65.558594 28.730469 C 65.582031 28.46875 65.621094 28.207031 65.664062 27.945312 C 65.710938 27.6875 65.769531 27.429688 65.839844 27.171875 C 65.976562 26.660156 66.171875 26.160156 66.421875 25.683594 C 66.542969 25.449219 66.6875 25.214844 66.835938 24.996094 C 66.992188 24.777344 67.164062 24.566406 67.34375 24.367188 C 67.433594 24.273438 67.53125 24.175781 67.632812 24.085938 C 67.679688 24.035156 67.734375 23.996094 67.78125 23.953125 L 67.925781 23.824219 C 68.117188 23.652344 68.292969 23.476562 68.464844 23.285156 C 68.800781 22.90625 69.089844 22.484375 69.308594 22.03125 C 69.527344 21.574219 69.667969 21.078125 69.765625 20.570312 C 69.867188 20.0625 69.914062 19.539062 70.023438 19.027344 C 69.988281 19.550781 69.996094 20.074219 69.941406 20.597656 C 69.886719 21.117188 69.777344 21.648438 69.566406 22.148438 C 69.367188 22.644531 69.070312 23.109375 68.726562 23.519531 C 68.550781 23.722656 68.363281 23.914062 68.164062 24.09375 L 67.878906 24.355469 C 67.785156 24.441406 67.695312 24.53125 67.609375 24.625 C 67.269531 24.992188 66.96875 25.40625 66.726562 25.855469 C 66.472656 26.296875 66.277344 26.773438 66.113281 27.257812 C 66.027344 27.503906 65.957031 27.75 65.894531 28 C 65.828125 28.25 65.769531 28.503906 65.726562 28.757812 C 65.648438 29.265625 65.578125 29.78125 65.546875 30.304688 "/><path style=" stroke:none;fill-rule:nonzero;fill:#000000;fill-opacity:1;" d="M 65.726562 34.75 C 65.726562 34.75 69.148438 31.019531 72.042969 31.050781 C 72.042969 31.050781 66.703125 32.890625 66.355469 35.613281 C 66.355469 35.613281 65.589844 36.660156 65.726562 34.75 "/><g clip-rule="nonzero" clip-path="url(#a64e8765c7)"><path style=" stroke:none;fill-rule:nonzero;fill:#5fa932;fill-opacity:1;" d="M 69.53125 31.367188 C 69.53125 31.367188 70.132812 25.164062 77.449219 29.265625 C 77.449219 29.265625 82.503906 32.4375 84.832031 31.722656 C 84.832031 31.722656 79.078125 35.203125 77.265625 35.832031 C 77.265625 35.832031 72.214844 38.316406 69.535156 31.917969 L 69.53125 31.367188 "/></g><path style=" stroke:none;fill-rule:nonzero;fill:#000000;fill-opacity:1;" d="M 69.535156 31.917969 C 69.726562 31.78125 69.929688 31.660156 70.140625 31.546875 C 70.347656 31.4375 70.558594 31.335938 70.773438 31.234375 C 71.207031 31.042969 71.648438 30.875 72.105469 30.742188 C 72.5625 30.609375 73.03125 30.507812 73.5 30.4375 C 73.96875 30.367188 74.449219 30.332031 74.929688 30.335938 C 75.410156 30.34375 75.882812 30.378906 76.359375 30.464844 C 76.476562 30.488281 76.59375 30.511719 76.710938 30.535156 L 76.886719 30.570312 L 77.058594 30.621094 C 77.175781 30.652344 77.289062 30.683594 77.40625 30.722656 L 77.742188 30.839844 C 77.851562 30.875 77.964844 30.921875 78.070312 30.972656 L 78.238281 31.042969 L 78.316406 31.078125 L 78.398438 31.121094 L 78.71875 31.28125 L 78.796875 31.324219 L 78.871094 31.367188 L 79.027344 31.457031 C 79.4375 31.699219 79.816406 31.980469 80.171875 32.285156 C 80.070312 32.226562 79.96875 32.167969 79.867188 32.109375 C 79.769531 32.050781 79.671875 31.984375 79.566406 31.933594 C 79.457031 31.878906 79.355469 31.824219 79.253906 31.765625 C 79.230469 31.75 79.203125 31.738281 79.179688 31.722656 L 79.101562 31.6875 L 78.941406 31.613281 C 78.523438 31.410156 78.085938 31.253906 77.644531 31.117188 L 77.3125 31.019531 C 77.203125 30.988281 77.089844 30.964844 76.976562 30.941406 L 76.8125 30.902344 L 76.640625 30.871094 C 76.53125 30.847656 76.417969 30.828125 76.300781 30.8125 L 75.960938 30.769531 C 75.847656 30.753906 75.730469 30.746094 75.617188 30.738281 C 75.558594 30.730469 75.503906 30.726562 75.445312 30.722656 L 75.277344 30.714844 C 75.160156 30.710938 75.046875 30.703125 74.929688 30.703125 C 74.011719 30.695312 73.089844 30.8125 72.1875 31.015625 C 71.734375 31.121094 71.285156 31.242188 70.847656 31.394531 C 70.738281 31.429688 70.628906 31.46875 70.519531 31.503906 L 70.191406 31.628906 C 70.085938 31.671875 69.972656 31.714844 69.867188 31.761719 C 69.75 31.816406 69.644531 31.863281 69.535156 31.917969 "/><path style=" stroke:none;fill-rule:nonzero;fill:#000000;fill-opacity:1;" d="M 62.703125 33.089844 C 62.703125 33.089844 65.589844 34.214844 65.726562 37.945312 C 65.726562 37.945312 64.109375 33.503906 62.351562 33.472656 C 62.351562 33.472656 57.570312 30.84375 62.703125 33.089844 "/><g clip-rule="nonzero" clip-path="url(#28b2de9820)"><path style=" stroke:none;fill-rule:nonzero;fill:#5fa932;fill-opacity:1;" d="M 63.3125 33.339844 C 63.3125 33.339844 61.929688 39.417969 55.195312 34.417969 C 55.195312 34.417969 50.582031 30.628906 48.1875 31.046875 C 48.1875 31.046875 54.332031 28.324219 56.210938 27.929688 C 56.210938 27.929688 64.765625 26.65625 63.175781 33.78125 L 63.3125 33.339844 "/></g><path style=" stroke:none;fill-rule:nonzero;fill:#000000;fill-opacity:1;" d="M 62.703125 33.089844 C 62.539062 32.898438 62.355469 32.722656 62.164062 32.550781 C 61.976562 32.378906 61.78125 32.226562 61.578125 32.074219 L 61.273438 31.855469 C 61.171875 31.78125 61.066406 31.71875 60.957031 31.65625 C 60.851562 31.589844 60.746094 31.527344 60.632812 31.460938 C 60.519531 31.402344 60.414062 31.34375 60.300781 31.285156 C 59.855469 31.0625 59.394531 30.871094 58.921875 30.722656 C 58.445312 30.570312 57.960938 30.453125 57.46875 30.367188 L 57.101562 30.308594 C 56.980469 30.292969 56.855469 30.285156 56.726562 30.273438 C 56.664062 30.269531 56.605469 30.257812 56.542969 30.25 L 56.355469 30.242188 C 56.230469 30.234375 56.105469 30.226562 55.980469 30.21875 C 55.730469 30.21875 55.480469 30.203125 55.230469 30.21875 L 54.855469 30.230469 L 54.480469 30.257812 C 53.480469 30.332031 52.480469 30.507812 51.488281 30.730469 C 52.4375 30.359375 53.429688 30.097656 54.449219 29.964844 L 54.835938 29.914062 C 54.960938 29.90625 55.089844 29.898438 55.21875 29.890625 L 55.410156 29.878906 C 55.472656 29.871094 55.539062 29.871094 55.601562 29.871094 L 55.988281 29.867188 C 56.503906 29.878906 57.015625 29.910156 57.527344 30 C 58.039062 30.085938 58.542969 30.214844 59.03125 30.386719 C 59.523438 30.554688 59.992188 30.773438 60.441406 31.03125 C 60.890625 31.285156 61.304688 31.597656 61.695312 31.933594 C 61.886719 32.101562 62.066406 32.285156 62.238281 32.476562 C 62.410156 32.671875 62.570312 32.875 62.703125 33.089844 "/><g style="fill:#ffffff;fill-opacity:1;"><g transform="translate(86.59335, 34.695504)"><path style="stroke:none" d="M 2.65625 -8.125 L 2.65625 -3.265625 C 2.65625 -2.773438 2.773438 -2.398438 3.015625 -2.140625 C 3.253906 -1.878906 3.609375 -1.75 4.078125 -1.75 C 4.535156 -1.75 4.890625 -1.878906 5.140625 -2.140625 C 5.390625 -2.398438 5.515625 -2.773438 5.515625 -3.265625 L 5.515625 -8.125 L 7.484375 -8.125 L 7.484375 -3.28125 C 7.484375 -2.550781 7.328125 -1.9375 7.015625 -1.4375 C 6.710938 -0.9375 6.300781 -0.554688 5.78125 -0.296875 C 5.257812 -0.046875 4.679688 0.078125 4.046875 0.078125 C 3.398438 0.078125 2.820312 -0.046875 2.3125 -0.296875 C 1.8125 -0.546875 1.414062 -0.921875 1.125 -1.421875 C 0.832031 -1.929688 0.6875 -2.550781 0.6875 -3.28125 L 0.6875 -8.125 Z M 2.65625 -8.125 "/></g></g><g style="fill:#ffffff;fill-opacity:1;"><g transform="translate(94.750747, 34.695504)"><path style="stroke:none" d="M 3.65625 0.078125 C 3.0625 0.078125 2.53125 -0.015625 2.0625 -0.203125 C 1.59375 -0.398438 1.21875 -0.6875 0.9375 -1.0625 C 0.65625 -1.4375 0.503906 -1.894531 0.484375 -2.4375 L 2.59375 -2.4375 C 2.625 -2.132812 2.726562 -1.898438 2.90625 -1.734375 C 3.082031 -1.578125 3.3125 -1.5 3.59375 -1.5 C 3.894531 -1.5 4.128906 -1.566406 4.296875 -1.703125 C 4.460938 -1.835938 4.546875 -2.023438 4.546875 -2.265625 C 4.546875 -2.472656 4.476562 -2.640625 4.34375 -2.765625 C 4.207031 -2.898438 4.039062 -3.007812 3.84375 -3.09375 C 3.644531 -3.175781 3.367188 -3.269531 3.015625 -3.375 C 2.484375 -3.539062 2.050781 -3.703125 1.71875 -3.859375 C 1.394531 -4.023438 1.113281 -4.265625 0.875 -4.578125 C 0.632812 -4.898438 0.515625 -5.316406 0.515625 -5.828125 C 0.515625 -6.578125 0.785156 -7.164062 1.328125 -7.59375 C 1.878906 -8.03125 2.59375 -8.25 3.46875 -8.25 C 4.363281 -8.25 5.082031 -8.03125 5.625 -7.59375 C 6.175781 -7.164062 6.472656 -6.570312 6.515625 -5.8125 L 4.375 -5.8125 C 4.363281 -6.070312 4.269531 -6.273438 4.09375 -6.421875 C 3.914062 -6.578125 3.6875 -6.65625 3.40625 -6.65625 C 3.164062 -6.65625 2.972656 -6.59375 2.828125 -6.46875 C 2.679688 -6.34375 2.609375 -6.160156 2.609375 -5.921875 C 2.609375 -5.648438 2.726562 -5.441406 2.96875 -5.296875 C 3.21875 -5.148438 3.609375 -4.992188 4.140625 -4.828125 C 4.660156 -4.648438 5.082031 -4.476562 5.40625 -4.3125 C 5.738281 -4.15625 6.023438 -3.921875 6.265625 -3.609375 C 6.503906 -3.304688 6.625 -2.910156 6.625 -2.421875 C 6.625 -1.953125 6.503906 -1.53125 6.265625 -1.15625 C 6.035156 -0.78125 5.695312 -0.476562 5.25 -0.25 C 4.800781 -0.03125 4.269531 0.078125 3.65625 0.078125 Z M 3.65625 0.078125 "/></g></g><g style="fill:#ffffff;fill-opacity:1;"><g transform="translate(101.866772, 34.695504)"><path style="stroke:none" d=""/></g></g><g style="fill:#ffffff;fill-opacity:1;"><g transform="translate(104.319772, 34.695504)"><path style="stroke:none" d="M 5.78125 -1.4375 L 2.75 -1.4375 L 2.25 0 L 0.1875 0 L 3.125 -8.125 L 5.421875 -8.125 L 8.359375 0 L 6.265625 0 Z M 5.265625 -2.96875 L 4.265625 -5.9375 L 3.265625 -2.96875 Z M 5.265625 -2.96875 "/></g></g><g style="fill:#ffffff;fill-opacity:1;"><g transform="translate(112.847427, 34.695504)"><path style="stroke:none" d="M 6.109375 -5.5625 C 5.960938 -5.832031 5.753906 -6.035156 5.484375 -6.171875 C 5.210938 -6.316406 4.890625 -6.390625 4.515625 -6.390625 C 3.867188 -6.390625 3.351562 -6.175781 2.96875 -5.75 C 2.582031 -5.332031 2.390625 -4.773438 2.390625 -4.078125 C 2.390625 -3.328125 2.59375 -2.738281 3 -2.3125 C 3.40625 -1.894531 3.960938 -1.6875 4.671875 -1.6875 C 5.160156 -1.6875 5.570312 -1.8125 5.90625 -2.0625 C 6.25 -2.3125 6.492188 -2.664062 6.640625 -3.125 L 4.140625 -3.125 L 4.140625 -4.578125 L 8.4375 -4.578125 L 8.4375 -2.75 C 8.289062 -2.25 8.039062 -1.785156 7.6875 -1.359375 C 7.34375 -0.941406 6.898438 -0.597656 6.359375 -0.328125 C 5.816406 -0.0664062 5.207031 0.0625 4.53125 0.0625 C 3.726562 0.0625 3.007812 -0.113281 2.375 -0.46875 C 1.75 -0.820312 1.257812 -1.3125 0.90625 -1.9375 C 0.550781 -2.5625 0.375 -3.273438 0.375 -4.078125 C 0.375 -4.878906 0.550781 -5.59375 0.90625 -6.21875 C 1.257812 -6.851562 1.75 -7.34375 2.375 -7.6875 C 3 -8.039062 3.710938 -8.21875 4.515625 -8.21875 C 5.484375 -8.21875 6.300781 -7.984375 6.96875 -7.515625 C 7.644531 -7.046875 8.085938 -6.394531 8.296875 -5.5625 Z M 6.109375 -5.5625 "/></g></g><g style="fill:#ffffff;fill-opacity:1;"><g transform="translate(121.667786, 34.695504)"><path style="stroke:none" d=""/></g></g><g style="fill:#ffffff;fill-opacity:1;"><g transform="translate(86.59335, 47.562895)"><path style="stroke:none" d="M 3.65625 0.078125 C 3.0625 0.078125 2.53125 -0.015625 2.0625 -0.203125 C 1.59375 -0.398438 1.21875 -0.6875 0.9375 -1.0625 C 0.65625 -1.4375 0.503906 -1.894531 0.484375 -2.4375 L 2.59375 -2.4375 C 2.625 -2.132812 2.726562 -1.898438 2.90625 -1.734375 C 3.082031 -1.578125 3.3125 -1.5 3.59375 -1.5 C 3.894531 -1.5 4.128906 -1.566406 4.296875 -1.703125 C 4.460938 -1.835938 4.546875 -2.023438 4.546875 -2.265625 C 4.546875 -2.472656 4.476562 -2.640625 4.34375 -2.765625 C 4.207031 -2.898438 4.039062 -3.007812 3.84375 -3.09375 C 3.644531 -3.175781 3.367188 -3.269531 3.015625 -3.375 C 2.484375 -3.539062 2.050781 -3.703125 1.71875 -3.859375 C 1.394531 -4.023438 1.113281 -4.265625 0.875 -4.578125 C 0.632812 -4.898438 0.515625 -5.316406 0.515625 -5.828125 C 0.515625 -6.578125 0.785156 -7.164062 1.328125 -7.59375 C 1.878906 -8.03125 2.59375 -8.25 3.46875 -8.25 C 4.363281 -8.25 5.082031 -8.03125 5.625 -7.59375 C 6.175781 -7.164062 6.472656 -6.570312 6.515625 -5.8125 L 4.375 -5.8125 C 4.363281 -6.070312 4.269531 -6.273438 4.09375 -6.421875 C 3.914062 -6.578125 3.6875 -6.65625 3.40625 -6.65625 C 3.164062 -6.65625 2.972656 -6.59375 2.828125 -6.46875 C 2.679688 -6.34375 2.609375 -6.160156 2.609375 -5.921875 C 2.609375 -5.648438 2.726562 -5.441406 2.96875 -5.296875 C 3.21875 -5.148438 3.609375 -4.992188 4.140625 -4.828125 C 4.660156 -4.648438 5.082031 -4.476562 5.40625 -4.3125 C 5.738281 -4.15625 6.023438 -3.921875 6.265625 -3.609375 C 6.503906 -3.304688 6.625 -2.910156 6.625 -2.421875 C 6.625 -1.953125 6.503906 -1.53125 6.265625 -1.15625 C 6.035156 -0.78125 5.695312 -0.476562 5.25 -0.25 C 4.800781 -0.03125 4.269531 0.078125 3.65625 0.078125 Z M 3.65625 0.078125 "/></g></g><g style="fill:#ffffff;fill-opacity:1;"><g transform="translate(93.709376, 47.562895)"><path style="stroke:none" d="M 3.65625 0.09375 C 3.019531 0.09375 2.445312 -0.0390625 1.9375 -0.3125 C 1.4375 -0.582031 1.039062 -0.96875 0.75 -1.46875 C 0.46875 -1.96875 0.328125 -2.554688 0.328125 -3.234375 C 0.328125 -3.890625 0.472656 -4.472656 0.765625 -4.984375 C 1.054688 -5.492188 1.457031 -5.878906 1.96875 -6.140625 C 2.476562 -6.410156 3.050781 -6.546875 3.6875 -6.546875 C 4.3125 -6.546875 4.878906 -6.410156 5.390625 -6.140625 C 5.898438 -5.878906 6.300781 -5.492188 6.59375 -4.984375 C 6.894531 -4.472656 7.046875 -3.890625 7.046875 -3.234375 C 7.046875 -2.566406 6.894531 -1.976562 6.59375 -1.46875 C 6.289062 -0.96875 5.882812 -0.582031 5.375 -0.3125 C 4.863281 -0.0390625 4.289062 0.09375 3.65625 0.09375 Z M 3.65625 -1.625 C 4.03125 -1.625 4.351562 -1.757812 4.625 -2.03125 C 4.894531 -2.3125 5.03125 -2.710938 5.03125 -3.234375 C 5.03125 -3.742188 4.898438 -4.140625 4.640625 -4.421875 C 4.378906 -4.703125 4.0625 -4.84375 3.6875 -4.84375 C 3.300781 -4.84375 2.976562 -4.703125 2.71875 -4.421875 C 2.46875 -4.148438 2.34375 -3.753906 2.34375 -3.234375 C 2.34375 -2.710938 2.46875 -2.3125 2.71875 -2.03125 C 2.96875 -1.757812 3.28125 -1.625 3.65625 -1.625 Z M 3.65625 -1.625 "/></g></g><g style="fill:#ffffff;fill-opacity:1;"><g transform="translate(101.079961, 47.562895)"><path style="stroke:none" d="M 2.703125 -8.5625 L 2.703125 0 L 0.71875 0 L 0.71875 -8.5625 Z M 2.703125 -8.5625 "/></g></g><g style="fill:#ffffff;fill-opacity:1;"><g transform="translate(104.49334, 47.562895)"><path style="stroke:none" d="M 7.09375 -6.453125 L 7.09375 0 L 5.125 0 L 5.125 -0.875 C 4.914062 -0.59375 4.640625 -0.363281 4.296875 -0.1875 C 3.953125 -0.0195312 3.570312 0.0625 3.15625 0.0625 C 2.664062 0.0625 2.226562 -0.046875 1.84375 -0.265625 C 1.46875 -0.484375 1.175781 -0.800781 0.96875 -1.21875 C 0.757812 -1.632812 0.65625 -2.125 0.65625 -2.6875 L 0.65625 -6.453125 L 2.625 -6.453125 L 2.625 -2.953125 C 2.625 -2.515625 2.734375 -2.175781 2.953125 -1.9375 C 3.179688 -1.707031 3.484375 -1.59375 3.859375 -1.59375 C 4.253906 -1.59375 4.5625 -1.707031 4.78125 -1.9375 C 5.007812 -2.175781 5.125 -2.515625 5.125 -2.953125 L 5.125 -6.453125 Z M 7.09375 -6.453125 "/></g></g><g style="fill:#ffffff;fill-opacity:1;"><g transform="translate(112.292039, 47.562895)"><path style="stroke:none" d="M 4.3125 -1.671875 L 4.3125 0 L 3.3125 0 C 2.59375 0 2.03125 -0.171875 1.625 -0.515625 C 1.226562 -0.867188 1.03125 -1.445312 1.03125 -2.25 L 1.03125 -4.8125 L 0.25 -4.8125 L 0.25 -6.453125 L 1.03125 -6.453125 L 1.03125 -8.03125 L 3.015625 -8.03125 L 3.015625 -6.453125 L 4.3125 -6.453125 L 4.3125 -4.8125 L 3.015625 -4.8125 L 3.015625 -2.21875 C 3.015625 -2.03125 3.054688 -1.890625 3.140625 -1.796875 C 3.234375 -1.710938 3.390625 -1.671875 3.609375 -1.671875 Z M 4.3125 -1.671875 "/></g></g><g style="fill:#ffffff;fill-opacity:1;"><g transform="translate(116.989774, 47.562895)"><path style="stroke:none" d="M 1.71875 -7.125 C 1.363281 -7.125 1.078125 -7.226562 0.859375 -7.4375 C 0.640625 -7.644531 0.53125 -7.898438 0.53125 -8.203125 C 0.53125 -8.503906 0.640625 -8.757812 0.859375 -8.96875 C 1.078125 -9.175781 1.363281 -9.28125 1.71875 -9.28125 C 2.050781 -9.28125 2.328125 -9.175781 2.546875 -8.96875 C 2.773438 -8.757812 2.890625 -8.503906 2.890625 -8.203125 C 2.890625 -7.898438 2.773438 -7.644531 2.546875 -7.4375 C 2.328125 -7.226562 2.050781 -7.125 1.71875 -7.125 Z M 2.703125 -6.453125 L 2.703125 0 L 0.71875 0 L 0.71875 -6.453125 Z M 2.703125 -6.453125 "/></g></g><g style="fill:#ffffff;fill-opacity:1;"><g transform="translate(120.403153, 47.562895)"><path style="stroke:none" d="M 3.65625 0.09375 C 3.019531 0.09375 2.445312 -0.0390625 1.9375 -0.3125 C 1.4375 -0.582031 1.039062 -0.96875 0.75 -1.46875 C 0.46875 -1.96875 0.328125 -2.554688 0.328125 -3.234375 C 0.328125 -3.890625 0.472656 -4.472656 0.765625 -4.984375 C 1.054688 -5.492188 1.457031 -5.878906 1.96875 -6.140625 C 2.476562 -6.410156 3.050781 -6.546875 3.6875 -6.546875 C 4.3125 -6.546875 4.878906 -6.410156 5.390625 -6.140625 C 5.898438 -5.878906 6.300781 -5.492188 6.59375 -4.984375 C 6.894531 -4.472656 7.046875 -3.890625 7.046875 -3.234375 C 7.046875 -2.566406 6.894531 -1.976562 6.59375 -1.46875 C 6.289062 -0.96875 5.882812 -0.582031 5.375 -0.3125 C 4.863281 -0.0390625 4.289062 0.09375 3.65625 0.09375 Z M 3.65625 -1.625 C 4.03125 -1.625 4.351562 -1.757812 4.625 -2.03125 C 4.894531 -2.3125 5.03125 -2.710938 5.03125 -3.234375 C 5.03125 -3.742188 4.898438 -4.140625 4.640625 -4.421875 C 4.378906 -4.703125 4.0625 -4.84375 3.6875 -4.84375 C 3.300781 -4.84375 2.976562 -4.703125 2.71875 -4.421875 C 2.46875 -4.148438 2.34375 -3.753906 2.34375 -3.234375 C 2.34375 -2.710938 2.46875 -2.3125 2.71875 -2.03125 C 2.96875 -1.757812 3.28125 -1.625 3.65625 -1.625 Z M 3.65625 -1.625 "/></g></g><g style="fill:#ffffff;fill-opacity:1;"><g transform="translate(127.773737, 47.562895)"><path style="stroke:none" d="M 4.65625 -6.53125 C 5.40625 -6.53125 6.003906 -6.285156 6.453125 -5.796875 C 6.910156 -5.304688 7.140625 -4.632812 7.140625 -3.78125 L 7.140625 0 L 5.171875 0 L 5.171875 -3.515625 C 5.171875 -3.941406 5.054688 -4.273438 4.828125 -4.515625 C 4.609375 -4.753906 4.3125 -4.875 3.9375 -4.875 C 3.5625 -4.875 3.257812 -4.753906 3.03125 -4.515625 C 2.8125 -4.273438 2.703125 -3.941406 2.703125 -3.515625 L 2.703125 0 L 0.71875 0 L 0.71875 -6.453125 L 2.703125 -6.453125 L 2.703125 -5.609375 C 2.898438 -5.890625 3.164062 -6.113281 3.5 -6.28125 C 3.84375 -6.445312 4.226562 -6.53125 4.65625 -6.53125 Z M 4.65625 -6.53125 "/></g></g><g style="fill:#ffffff;fill-opacity:1;"><g transform="translate(135.572437, 47.562895)"><path style="stroke:none" d="M 3.34375 0.09375 C 2.78125 0.09375 2.28125 0 1.84375 -0.1875 C 1.40625 -0.382812 1.054688 -0.648438 0.796875 -0.984375 C 0.546875 -1.328125 0.40625 -1.707031 0.375 -2.125 L 2.328125 -2.125 C 2.347656 -1.894531 2.453125 -1.707031 2.640625 -1.5625 C 2.828125 -1.425781 3.054688 -1.359375 3.328125 -1.359375 C 3.566406 -1.359375 3.753906 -1.40625 3.890625 -1.5 C 4.023438 -1.601562 4.09375 -1.734375 4.09375 -1.890625 C 4.09375 -2.078125 3.992188 -2.210938 3.796875 -2.296875 C 3.609375 -2.390625 3.300781 -2.488281 2.875 -2.59375 C 2.40625 -2.695312 2.015625 -2.804688 1.703125 -2.921875 C 1.398438 -3.046875 1.132812 -3.238281 0.90625 -3.5 C 0.6875 -3.757812 0.578125 -4.109375 0.578125 -4.546875 C 0.578125 -4.921875 0.675781 -5.257812 0.875 -5.5625 C 1.082031 -5.863281 1.382812 -6.101562 1.78125 -6.28125 C 2.1875 -6.457031 2.660156 -6.546875 3.203125 -6.546875 C 4.015625 -6.546875 4.65625 -6.34375 5.125 -5.9375 C 5.59375 -5.539062 5.859375 -5.015625 5.921875 -4.359375 L 4.09375 -4.359375 C 4.0625 -4.578125 3.960938 -4.75 3.796875 -4.875 C 3.628906 -5.007812 3.414062 -5.078125 3.15625 -5.078125 C 2.914062 -5.078125 2.734375 -5.03125 2.609375 -4.9375 C 2.492188 -4.851562 2.4375 -4.734375 2.4375 -4.578125 C 2.4375 -4.398438 2.53125 -4.265625 2.71875 -4.171875 C 2.914062 -4.078125 3.222656 -3.984375 3.640625 -3.890625 C 4.117188 -3.765625 4.507812 -3.640625 4.8125 -3.515625 C 5.113281 -3.398438 5.378906 -3.207031 5.609375 -2.9375 C 5.835938 -2.675781 5.957031 -2.320312 5.96875 -1.875 C 5.96875 -1.5 5.859375 -1.160156 5.640625 -0.859375 C 5.429688 -0.566406 5.128906 -0.332031 4.734375 -0.15625 C 4.335938 0.0078125 3.875 0.09375 3.34375 0.09375 Z M 3.34375 0.09375 "/></g></g></g></svg>