<svg xmlns="http://www.w3.org/2000/svg" xmlns:xlink="http://www.w3.org/1999/xlink" width="250" zoomAndPan="magnify" viewBox="0 0 187.5 74.999997" height="100" preserveAspectRatio="xMidYMid meet" version="1.2"><defs><clipPath id="d908f03a31"><path d="M 44.960938 16.980469 L 82.363281 16.980469 L 82.363281 58.121094 L 44.960938 58.121094 Z M 44.960938 16.980469 "/></clipPath></defs><g id="bfae661ee2"><g clip-rule="nonzero" clip-path="url(#d908f03a31)"><path style=" stroke:none;fill-rule:nonzero;fill:#159c6a;fill-opacity:1;" d="M 72.640625 50.582031 C 71.265625 50.582031 69.976562 50.941406 68.859375 51.574219 C 68.003906 49.324219 66.125 47.578125 63.789062 46.90625 C 64.332031 44.871094 64.699219 42.796875 64.890625 40.714844 C 64.894531 40.664062 64.898438 40.613281 64.902344 40.558594 C 65.320312 40.191406 65.808594 39.777344 66.1875 39.496094 C 66.261719 39.441406 66.371094 39.351562 66.449219 39.292969 C 66.609375 39.171875 66.914062 38.960938 67.078125 38.84375 C 69.464844 37.1875 72.203125 36.023438 75.050781 35.40625 C 75.3125 35.355469 75.671875 35.289062 75.941406 35.234375 C 76.039062 35.21875 76.171875 35.199219 76.316406 35.179688 C 76.578125 35.175781 76.949219 35.175781 77.15625 35.179688 L 76.667969 35.269531 C 76.429688 35.320312 75.941406 35.421875 75.699219 35.472656 C 75.414062 35.546875 75.027344 35.644531 74.742188 35.722656 C 72.425781 36.390625 70.195312 37.492188 68.144531 38.96875 C 69.296875 40.816406 71.410156 41.976562 73.734375 41.804688 C 77.066406 41.554688 82.304688 35.09375 82.304688 35.09375 C 82.304688 35.09375 76.160156 29.488281 72.828125 29.738281 C 69.496094 29.984375 67 32.890625 67.25 36.222656 C 67.269531 36.53125 67.316406 36.828125 67.382812 37.121094 C 66.578125 37.488281 65.789062 37.902344 65.027344 38.355469 C 65.125 34.875 64.730469 31.386719 63.851562 28.023438 C 63.996094 27.945312 64.140625 27.859375 64.277344 27.769531 C 66.664062 26.191406 67.320312 22.980469 65.742188 20.59375 C 64.164062 18.207031 57.152344 16.988281 57.152344 16.988281 C 57.152344 16.988281 55.523438 23.917969 57.101562 26.304688 C 58.203125 27.96875 60.09375 28.789062 61.949219 28.601562 C 61.875 26.441406 61.453125 24.355469 60.6875 22.433594 C 60.589844 22.199219 60.453125 21.890625 60.355469 21.65625 C 60.261719 21.46875 60.078125 21.082031 59.984375 20.894531 L 59.789062 20.519531 C 59.921875 20.683594 60.179688 21.015625 60.304688 21.1875 C 60.550781 21.5 60.816406 21.898438 61.039062 22.226562 C 61.246094 22.5625 61.5 22.976562 61.683594 23.332031 C 61.984375 23.882812 62.25 24.453125 62.492188 25.039062 C 63.867188 30.246094 64.039062 35.769531 63 41.050781 C 62.976562 41.035156 62.953125 41.019531 62.933594 41.007812 C 62.785156 40.921875 62.464844 40.734375 62.320312 40.648438 C 61.886719 40.402344 61.445312 40.167969 60.996094 39.949219 C 61.519531 36.757812 59.429688 33.699219 56.234375 33.046875 C 52.957031 32.378906 46.160156 37.164062 46.160156 37.164062 C 46.160156 37.164062 50.539062 44.234375 53.816406 44.902344 C 56.097656 45.367188 58.339844 44.484375 59.714844 42.796875 C 57.867188 41.070312 55.796875 39.695312 53.578125 38.742188 C 53.304688 38.628906 52.9375 38.484375 52.660156 38.375 C 52.429688 38.292969 51.957031 38.128906 51.726562 38.050781 L 51.253906 37.902344 C 51.5 37.925781 51.988281 37.988281 52.230469 38.027344 C 52.691406 38.082031 53.242188 38.191406 53.695312 38.28125 C 54.144531 38.386719 54.699219 38.519531 55.144531 38.660156 C 55.476562 38.757812 55.804688 38.867188 56.132812 38.980469 C 58.488281 39.890625 60.683594 41.195312 62.601562 42.839844 C 62.277344 44.117188 61.882812 45.378906 61.414062 46.613281 C 58.675781 46.699219 56.300781 48.210938 55.003906 50.433594 C 54.265625 50.199219 53.480469 50.070312 52.664062 50.070312 C 48.410156 50.070312 44.960938 53.519531 44.960938 57.773438 C 44.960938 57.90625 45.066406 58.011719 45.199219 58.011719 L 79.847656 58.011719 C 80.117188 58.011719 80.328125 57.777344 80.304688 57.511719 C 79.914062 53.621094 76.632812 50.582031 72.640625 50.582031 Z M 72.640625 50.582031 "/></g><g style="fill:#3c600b;fill-opacity:1;"><g transform="translate(86.59335, 34.695504)"><path style="stroke:none" d="M 2.65625 -8.125 L 2.65625 -3.265625 C 2.65625 -2.773438 2.773438 -2.398438 3.015625 -2.140625 C 3.253906 -1.878906 3.609375 -1.75 4.078125 -1.75 C 4.535156 -1.75 4.890625 -1.878906 5.140625 -2.140625 C 5.390625 -2.398438 5.515625 -2.773438 5.515625 -3.265625 L 5.515625 -8.125 L 7.484375 -8.125 L 7.484375 -3.28125 C 7.484375 -2.550781 7.328125 -1.9375 7.015625 -1.4375 C 6.710938 -0.9375 6.300781 -0.554688 5.78125 -0.296875 C 5.257812 -0.046875 4.679688 0.078125 4.046875 0.078125 C 3.398438 0.078125 2.820312 -0.046875 2.3125 -0.296875 C 1.8125 -0.546875 1.414062 -0.921875 1.125 -1.421875 C 0.832031 -1.929688 0.6875 -2.550781 0.6875 -3.28125 L 0.6875 -8.125 Z M 2.65625 -8.125 "/></g></g><g style="fill:#3c600b;fill-opacity:1;"><g transform="translate(94.750747, 34.695504)"><path style="stroke:none" d="M 3.65625 0.078125 C 3.0625 0.078125 2.53125 -0.015625 2.0625 -0.203125 C 1.59375 -0.398438 1.21875 -0.6875 0.9375 -1.0625 C 0.65625 -1.4375 0.503906 -1.894531 0.484375 -2.4375 L 2.59375 -2.4375 C 2.625 -2.132812 2.726562 -1.898438 2.90625 -1.734375 C 3.082031 -1.578125 3.3125 -1.5 3.59375 -1.5 C 3.894531 -1.5 4.128906 -1.566406 4.296875 -1.703125 C 4.460938 -1.835938 4.546875 -2.023438 4.546875 -2.265625 C 4.546875 -2.472656 4.476562 -2.640625 4.34375 -2.765625 C 4.207031 -2.898438 4.039062 -3.007812 3.84375 -3.09375 C 3.644531 -3.175781 3.367188 -3.269531 3.015625 -3.375 C 2.484375 -3.539062 2.050781 -3.703125 1.71875 -3.859375 C 1.394531 -4.023438 1.113281 -4.265625 0.875 -4.578125 C 0.632812 -4.898438 0.515625 -5.316406 0.515625 -5.828125 C 0.515625 -6.578125 0.785156 -7.164062 1.328125 -7.59375 C 1.878906 -8.03125 2.59375 -8.25 3.46875 -8.25 C 4.363281 -8.25 5.082031 -8.03125 5.625 -7.59375 C 6.175781 -7.164062 6.472656 -6.570312 6.515625 -5.8125 L 4.375 -5.8125 C 4.363281 -6.070312 4.269531 -6.273438 4.09375 -6.421875 C 3.914062 -6.578125 3.6875 -6.65625 3.40625 -6.65625 C 3.164062 -6.65625 2.972656 -6.59375 2.828125 -6.46875 C 2.679688 -6.34375 2.609375 -6.160156 2.609375 -5.921875 C 2.609375 -5.648438 2.726562 -5.441406 2.96875 -5.296875 C 3.21875 -5.148438 3.609375 -4.992188 4.140625 -4.828125 C 4.660156 -4.648438 5.082031 -4.476562 5.40625 -4.3125 C 5.738281 -4.15625 6.023438 -3.921875 6.265625 -3.609375 C 6.503906 -3.304688 6.625 -2.910156 6.625 -2.421875 C 6.625 -1.953125 6.503906 -1.53125 6.265625 -1.15625 C 6.035156 -0.78125 5.695312 -0.476562 5.25 -0.25 C 4.800781 -0.03125 4.269531 0.078125 3.65625 0.078125 Z M 3.65625 0.078125 "/></g></g><g style="fill:#3c600b;fill-opacity:1;"><g transform="translate(101.866772, 34.695504)"><path style="stroke:none" d=""/></g></g><g style="fill:#3c600b;fill-opacity:1;"><g transform="translate(104.319772, 34.695504)"><path style="stroke:none" d="M 5.78125 -1.4375 L 2.75 -1.4375 L 2.25 0 L 0.1875 0 L 3.125 -8.125 L 5.421875 -8.125 L 8.359375 0 L 6.265625 0 Z M 5.265625 -2.96875 L 4.265625 -5.9375 L 3.265625 -2.96875 Z M 5.265625 -2.96875 "/></g></g><g style="fill:#3c600b;fill-opacity:1;"><g transform="translate(112.847427, 34.695504)"><path style="stroke:none" d="M 6.109375 -5.5625 C 5.960938 -5.832031 5.753906 -6.035156 5.484375 -6.171875 C 5.210938 -6.316406 4.890625 -6.390625 4.515625 -6.390625 C 3.867188 -6.390625 3.351562 -6.175781 2.96875 -5.75 C 2.582031 -5.332031 2.390625 -4.773438 2.390625 -4.078125 C 2.390625 -3.328125 2.59375 -2.738281 3 -2.3125 C 3.40625 -1.894531 3.960938 -1.6875 4.671875 -1.6875 C 5.160156 -1.6875 5.570312 -1.8125 5.90625 -2.0625 C 6.25 -2.3125 6.492188 -2.664062 6.640625 -3.125 L 4.140625 -3.125 L 4.140625 -4.578125 L 8.4375 -4.578125 L 8.4375 -2.75 C 8.289062 -2.25 8.039062 -1.785156 7.6875 -1.359375 C 7.34375 -0.941406 6.898438 -0.597656 6.359375 -0.328125 C 5.816406 -0.0664062 5.207031 0.0625 4.53125 0.0625 C 3.726562 0.0625 3.007812 -0.113281 2.375 -0.46875 C 1.75 -0.820312 1.257812 -1.3125 0.90625 -1.9375 C 0.550781 -2.5625 0.375 -3.273438 0.375 -4.078125 C 0.375 -4.878906 0.550781 -5.59375 0.90625 -6.21875 C 1.257812 -6.851562 1.75 -7.34375 2.375 -7.6875 C 3 -8.039062 3.710938 -8.21875 4.515625 -8.21875 C 5.484375 -8.21875 6.300781 -7.984375 6.96875 -7.515625 C 7.644531 -7.046875 8.085938 -6.394531 8.296875 -5.5625 Z M 6.109375 -5.5625 "/></g></g><g style="fill:#3c600b;fill-opacity:1;"><g transform="translate(121.667786, 34.695504)"><path style="stroke:none" d=""/></g></g><g style="fill:#3c600b;fill-opacity:1;"><g transform="translate(86.59335, 47.562895)"><path style="stroke:none" d="M 3.65625 0.078125 C 3.0625 0.078125 2.53125 -0.015625 2.0625 -0.203125 C 1.59375 -0.398438 1.21875 -0.6875 0.9375 -1.0625 C 0.65625 -1.4375 0.503906 -1.894531 0.484375 -2.4375 L 2.59375 -2.4375 C 2.625 -2.132812 2.726562 -1.898438 2.90625 -1.734375 C 3.082031 -1.578125 3.3125 -1.5 3.59375 -1.5 C 3.894531 -1.5 4.128906 -1.566406 4.296875 -1.703125 C 4.460938 -1.835938 4.546875 -2.023438 4.546875 -2.265625 C 4.546875 -2.472656 4.476562 -2.640625 4.34375 -2.765625 C 4.207031 -2.898438 4.039062 -3.007812 3.84375 -3.09375 C 3.644531 -3.175781 3.367188 -3.269531 3.015625 -3.375 C 2.484375 -3.539062 2.050781 -3.703125 1.71875 -3.859375 C 1.394531 -4.023438 1.113281 -4.265625 0.875 -4.578125 C 0.632812 -4.898438 0.515625 -5.316406 0.515625 -5.828125 C 0.515625 -6.578125 0.785156 -7.164062 1.328125 -7.59375 C 1.878906 -8.03125 2.59375 -8.25 3.46875 -8.25 C 4.363281 -8.25 5.082031 -8.03125 5.625 -7.59375 C 6.175781 -7.164062 6.472656 -6.570312 6.515625 -5.8125 L 4.375 -5.8125 C 4.363281 -6.070312 4.269531 -6.273438 4.09375 -6.421875 C 3.914062 -6.578125 3.6875 -6.65625 3.40625 -6.65625 C 3.164062 -6.65625 2.972656 -6.59375 2.828125 -6.46875 C 2.679688 -6.34375 2.609375 -6.160156 2.609375 -5.921875 C 2.609375 -5.648438 2.726562 -5.441406 2.96875 -5.296875 C 3.21875 -5.148438 3.609375 -4.992188 4.140625 -4.828125 C 4.660156 -4.648438 5.082031 -4.476562 5.40625 -4.3125 C 5.738281 -4.15625 6.023438 -3.921875 6.265625 -3.609375 C 6.503906 -3.304688 6.625 -2.910156 6.625 -2.421875 C 6.625 -1.953125 6.503906 -1.53125 6.265625 -1.15625 C 6.035156 -0.78125 5.695312 -0.476562 5.25 -0.25 C 4.800781 -0.03125 4.269531 0.078125 3.65625 0.078125 Z M 3.65625 0.078125 "/></g></g><g style="fill:#3c600b;fill-opacity:1;"><g transform="translate(93.709376, 47.562895)"><path style="stroke:none" d="M 3.65625 0.09375 C 3.019531 0.09375 2.445312 -0.0390625 1.9375 -0.3125 C 1.4375 -0.582031 1.039062 -0.96875 0.75 -1.46875 C 0.46875 -1.96875 0.328125 -2.554688 0.328125 -3.234375 C 0.328125 -3.890625 0.472656 -4.472656 0.765625 -4.984375 C 1.054688 -5.492188 1.457031 -5.878906 1.96875 -6.140625 C 2.476562 -6.410156 3.050781 -6.546875 3.6875 -6.546875 C 4.3125 -6.546875 4.878906 -6.410156 5.390625 -6.140625 C 5.898438 -5.878906 6.300781 -5.492188 6.59375 -4.984375 C 6.894531 -4.472656 7.046875 -3.890625 7.046875 -3.234375 C 7.046875 -2.566406 6.894531 -1.976562 6.59375 -1.46875 C 6.289062 -0.96875 5.882812 -0.582031 5.375 -0.3125 C 4.863281 -0.0390625 4.289062 0.09375 3.65625 0.09375 Z M 3.65625 -1.625 C 4.03125 -1.625 4.351562 -1.757812 4.625 -2.03125 C 4.894531 -2.3125 5.03125 -2.710938 5.03125 -3.234375 C 5.03125 -3.742188 4.898438 -4.140625 4.640625 -4.421875 C 4.378906 -4.703125 4.0625 -4.84375 3.6875 -4.84375 C 3.300781 -4.84375 2.976562 -4.703125 2.71875 -4.421875 C 2.46875 -4.148438 2.34375 -3.753906 2.34375 -3.234375 C 2.34375 -2.710938 2.46875 -2.3125 2.71875 -2.03125 C 2.96875 -1.757812 3.28125 -1.625 3.65625 -1.625 Z M 3.65625 -1.625 "/></g></g><g style="fill:#3c600b;fill-opacity:1;"><g transform="translate(101.079961, 47.562895)"><path style="stroke:none" d="M 2.703125 -8.5625 L 2.703125 0 L 0.71875 0 L 0.71875 -8.5625 Z M 2.703125 -8.5625 "/></g></g><g style="fill:#3c600b;fill-opacity:1;"><g transform="translate(104.49334, 47.562895)"><path style="stroke:none" d="M 7.09375 -6.453125 L 7.09375 0 L 5.125 0 L 5.125 -0.875 C 4.914062 -0.59375 4.640625 -0.363281 4.296875 -0.1875 C 3.953125 -0.0195312 3.570312 0.0625 3.15625 0.0625 C 2.664062 0.0625 2.226562 -0.046875 1.84375 -0.265625 C 1.46875 -0.484375 1.175781 -0.800781 0.96875 -1.21875 C 0.757812 -1.632812 0.65625 -2.125 0.65625 -2.6875 L 0.65625 -6.453125 L 2.625 -6.453125 L 2.625 -2.953125 C 2.625 -2.515625 2.734375 -2.175781 2.953125 -1.9375 C 3.179688 -1.707031 3.484375 -1.59375 3.859375 -1.59375 C 4.253906 -1.59375 4.5625 -1.707031 4.78125 -1.9375 C 5.007812 -2.175781 5.125 -2.515625 5.125 -2.953125 L 5.125 -6.453125 Z M 7.09375 -6.453125 "/></g></g><g style="fill:#3c600b;fill-opacity:1;"><g transform="translate(112.292039, 47.562895)"><path style="stroke:none" d="M 4.3125 -1.671875 L 4.3125 0 L 3.3125 0 C 2.59375 0 2.03125 -0.171875 1.625 -0.515625 C 1.226562 -0.867188 1.03125 -1.445312 1.03125 -2.25 L 1.03125 -4.8125 L 0.25 -4.8125 L 0.25 -6.453125 L 1.03125 -6.453125 L 1.03125 -8.03125 L 3.015625 -8.03125 L 3.015625 -6.453125 L 4.3125 -6.453125 L 4.3125 -4.8125 L 3.015625 -4.8125 L 3.015625 -2.21875 C 3.015625 -2.03125 3.054688 -1.890625 3.140625 -1.796875 C 3.234375 -1.710938 3.390625 -1.671875 3.609375 -1.671875 Z M 4.3125 -1.671875 "/></g></g><g style="fill:#3c600b;fill-opacity:1;"><g transform="translate(116.989774, 47.562895)"><path style="stroke:none" d="M 1.71875 -7.125 C 1.363281 -7.125 1.078125 -7.226562 0.859375 -7.4375 C 0.640625 -7.644531 0.53125 -7.898438 0.53125 -8.203125 C 0.53125 -8.503906 0.640625 -8.757812 0.859375 -8.96875 C 1.078125 -9.175781 1.363281 -9.28125 1.71875 -9.28125 C 2.050781 -9.28125 2.328125 -9.175781 2.546875 -8.96875 C 2.773438 -8.757812 2.890625 -8.503906 2.890625 -8.203125 C 2.890625 -7.898438 2.773438 -7.644531 2.546875 -7.4375 C 2.328125 -7.226562 2.050781 -7.125 1.71875 -7.125 Z M 2.703125 -6.453125 L 2.703125 0 L 0.71875 0 L 0.71875 -6.453125 Z M 2.703125 -6.453125 "/></g></g><g style="fill:#3c600b;fill-opacity:1;"><g transform="translate(120.403153, 47.562895)"><path style="stroke:none" d="M 3.65625 0.09375 C 3.019531 0.09375 2.445312 -0.0390625 1.9375 -0.3125 C 1.4375 -0.582031 1.039062 -0.96875 0.75 -1.46875 C 0.46875 -1.96875 0.328125 -2.554688 0.328125 -3.234375 C 0.328125 -3.890625 0.472656 -4.472656 0.765625 -4.984375 C 1.054688 -5.492188 1.457031 -5.878906 1.96875 -6.140625 C 2.476562 -6.410156 3.050781 -6.546875 3.6875 -6.546875 C 4.3125 -6.546875 4.878906 -6.410156 5.390625 -6.140625 C 5.898438 -5.878906 6.300781 -5.492188 6.59375 -4.984375 C 6.894531 -4.472656 7.046875 -3.890625 7.046875 -3.234375 C 7.046875 -2.566406 6.894531 -1.976562 6.59375 -1.46875 C 6.289062 -0.96875 5.882812 -0.582031 5.375 -0.3125 C 4.863281 -0.0390625 4.289062 0.09375 3.65625 0.09375 Z M 3.65625 -1.625 C 4.03125 -1.625 4.351562 -1.757812 4.625 -2.03125 C 4.894531 -2.3125 5.03125 -2.710938 5.03125 -3.234375 C 5.03125 -3.742188 4.898438 -4.140625 4.640625 -4.421875 C 4.378906 -4.703125 4.0625 -4.84375 3.6875 -4.84375 C 3.300781 -4.84375 2.976562 -4.703125 2.71875 -4.421875 C 2.46875 -4.148438 2.34375 -3.753906 2.34375 -3.234375 C 2.34375 -2.710938 2.46875 -2.3125 2.71875 -2.03125 C 2.96875 -1.757812 3.28125 -1.625 3.65625 -1.625 Z M 3.65625 -1.625 "/></g></g><g style="fill:#3c600b;fill-opacity:1;"><g transform="translate(127.773737, 47.562895)"><path style="stroke:none" d="M 4.65625 -6.53125 C 5.40625 -6.53125 6.003906 -6.285156 6.453125 -5.796875 C 6.910156 -5.304688 7.140625 -4.632812 7.140625 -3.78125 L 7.140625 0 L 5.171875 0 L 5.171875 -3.515625 C 5.171875 -3.941406 5.054688 -4.273438 4.828125 -4.515625 C 4.609375 -4.753906 4.3125 -4.875 3.9375 -4.875 C 3.5625 -4.875 3.257812 -4.753906 3.03125 -4.515625 C 2.8125 -4.273438 2.703125 -3.941406 2.703125 -3.515625 L 2.703125 0 L 0.71875 0 L 0.71875 -6.453125 L 2.703125 -6.453125 L 2.703125 -5.609375 C 2.898438 -5.890625 3.164062 -6.113281 3.5 -6.28125 C 3.84375 -6.445312 4.226562 -6.53125 4.65625 -6.53125 Z M 4.65625 -6.53125 "/></g></g><g style="fill:#3c600b;fill-opacity:1;"><g transform="translate(135.572437, 47.562895)"><path style="stroke:none" d="M 3.34375 0.09375 C 2.78125 0.09375 2.28125 0 1.84375 -0.1875 C 1.40625 -0.382812 1.054688 -0.648438 0.796875 -0.984375 C 0.546875 -1.328125 0.40625 -1.707031 0.375 -2.125 L 2.328125 -2.125 C 2.347656 -1.894531 2.453125 -1.707031 2.640625 -1.5625 C 2.828125 -1.425781 3.054688 -1.359375 3.328125 -1.359375 C 3.566406 -1.359375 3.753906 -1.40625 3.890625 -1.5 C 4.023438 -1.601562 4.09375 -1.734375 4.09375 -1.890625 C 4.09375 -2.078125 3.992188 -2.210938 3.796875 -2.296875 C 3.609375 -2.390625 3.300781 -2.488281 2.875 -2.59375 C 2.40625 -2.695312 2.015625 -2.804688 1.703125 -2.921875 C 1.398438 -3.046875 1.132812 -3.238281 0.90625 -3.5 C 0.6875 -3.757812 0.578125 -4.109375 0.578125 -4.546875 C 0.578125 -4.921875 0.675781 -5.257812 0.875 -5.5625 C 1.082031 -5.863281 1.382812 -6.101562 1.78125 -6.28125 C 2.1875 -6.457031 2.660156 -6.546875 3.203125 -6.546875 C 4.015625 -6.546875 4.65625 -6.34375 5.125 -5.9375 C 5.59375 -5.539062 5.859375 -5.015625 5.921875 -4.359375 L 4.09375 -4.359375 C 4.0625 -4.578125 3.960938 -4.75 3.796875 -4.875 C 3.628906 -5.007812 3.414062 -5.078125 3.15625 -5.078125 C 2.914062 -5.078125 2.734375 -5.03125 2.609375 -4.9375 C 2.492188 -4.851562 2.4375 -4.734375 2.4375 -4.578125 C 2.4375 -4.398438 2.53125 -4.265625 2.71875 -4.171875 C 2.914062 -4.078125 3.222656 -3.984375 3.640625 -3.890625 C 4.117188 -3.765625 4.507812 -3.640625 4.8125 -3.515625 C 5.113281 -3.398438 5.378906 -3.207031 5.609375 -2.9375 C 5.835938 -2.675781 5.957031 -2.320312 5.96875 -1.875 C 5.96875 -1.5 5.859375 -1.160156 5.640625 -0.859375 C 5.429688 -0.566406 5.128906 -0.332031 4.734375 -0.15625 C 4.335938 0.0078125 3.875 0.09375 3.34375 0.09375 Z M 3.34375 0.09375 "/></g></g></g></svg>